<svg version="1.1" xmlns="http://www.w3.org/2000/svg" xmlns:xlink="http://www.w3.org/1999/xlink" width="528.47887" height="361.12087" viewBox="0,0,528.47887,361.12087"><g transform="translate(215,84.1875)"><g data-paper-data="{&quot;isPaintingLayer&quot;:true}" fill-rule="nonzero" stroke="none" stroke-width="0.5" stroke-linecap="butt" stroke-linejoin="miter" stroke-miterlimit="10" stroke-dasharray="" stroke-dashoffset="0" style="mix-blend-mode: normal"><path d="M-213,-44.6875c0,-1.38071 1.11929,-2.5 2.5,-2.5c1.38071,0 2.5,1.11929 2.5,2.5c0,1.38071 -1.11929,2.5 -2.5,2.5c-1.38071,0 -2.5,-1.11929 -2.5,-2.5z" fill="#0064ff"/><path d="M218.5,5.8125c2.5,0 2.5,2.5 2.5,2.5l-0.03228,2.59955c0.96473,2.78525 2.6197,6.09175 3,9c0.53149,4.0644 -0.73235,4.88343 0.81856,8.38907c0.52649,1.19007 1.69499,2.05236 2.10645,3.28693c0.3336,1.00095 -0.16752,2.13125 0.04386,3.16494c0.48781,2.38553 2.05752,4.41917 2.91088,6.69962c1.97199,5.2698 4.36434,10.65077 6.86509,15.69602c0.92255,1.86124 2.83764,3.07285 3.91407,4.84954c0.5462,0.90154 0.45767,2.09613 1,3c0.48507,0.80845 1.33334,1.33334 2,2c0.67608,1.91339 0.55897,4.23957 1.86014,5.79685c0.65911,0.78884 1.85939,0.93009 2.62989,1.61054c1.3364,1.18021 2.67477,2.42128 3.63592,3.92295c0.86029,1.34408 0.76001,3.19742 1.73173,4.46327c0.99445,1.29547 2.87569,1.67593 3.93508,2.91885c1.04273,1.22336 1.35631,2.9238 2.20725,4.28754c1.56842,2.51359 3.91386,4.45009 5.80673,6.72936c1.53569,1.84918 2.46019,4.15426 4,6c3.57382,4.28387 8.31758,9.12203 12.65161,12.65161c1.07842,0.87825 2.53172,1.33086 3.40179,2.41587c0.74543,0.92958 0.63394,2.32413 1.22769,3.35722c1.54906,2.69528 3.55434,5.12654 4.94783,7.90545c2.36163,3.60628 2.87038,7.27181 5,11c2.25108,3.94081 5.71701,6.9895 8,11c1.28501,2.25736 1.93178,4.82825 3.08351,7.15644c0.59107,1.19483 1.77937,2.09257 2.14694,3.37392c0.40625,1.41618 -0.09498,2.95718 0.08854,4.419c0.47539,3.78653 2.45807,7.20597 3,11c1.10854,7.76083 0.01873,16.45643 0.01873,24.30546c-0.02715,6.24142 -2.05532,11.85492 -3.30944,17.93973c-1.08441,5.26135 -2.47884,11.28582 -4.94477,16.15865c-2.40774,4.75784 -7.12507,8.02777 -10.20494,12.34555c-1.24369,1.74356 -2.81608,3.24168 -4.01274,5.01784c-0.90578,1.3444 -1.11756,3.15625 -2.26034,4.30599c-1.08592,1.09254 -2.9268,1.12399 -4.11326,2.10643c-1.83333,1.51806 -2.63835,4.17458 -4.68599,5.38814c-1.48692,0.88124 -3.26247,1.16965 -4.80464,1.95022c-1.94362,0.98376 -3.77261,2.25696 -5.84954,2.91407c-5.34839,5.48964 -12.07794,5.66484 -19.16034,6.38016c-1.6598,0.16764 -3.25164,0.77934 -4.90764,0.98106c-2.39773,0.29206 -4.83089,0.01216 -7.24634,0.01216c-8.34392,0 -16.88351,-0.00014 -25.01798,-2.23184c-5.03548,-1.38149 -12.23109,-4.25776 -16.4438,-7.24006c-1.10698,-0.78366 -1.73422,-2.13412 -2.85256,-2.90148c-1.80355,-1.23752 -4.15285,-1.37795 -6.20315,-2.13986c-1.86211,-2.62203 -4.85781,-5.2011 -6.16163,-8.17505c-1.24914,-2.84924 -1.57126,-6.03214 -2.6656,-8.94435c-1.29352,-3.44219 -3.5798,-6.71624 -4.12301,-10.46691c-0.35573,-2.45618 0.97241,-5.09936 0.15802,-7.44375c-0.26839,-0.77262 -1.41046,-0.93805 -1.8194,-1.64639c-0.66509,-1.15202 -0.97276,-2.48296 -1.30777,-3.7703c-1.35029,-5.18882 -1.06313,-10.24929 -1.06313,-15.54002c0,-6.66666 0,-13.33334 0,-20c0,-0.48001 -0.0095,-6.14146 0.03228,-6.40045c0.16858,-1.04521 0.83914,-1.96779 1.00229,-3.01385c0.45783,-2.93531 -0.28247,-5.99887 0.32748,-8.90638c1.01057,-4.81722 3.22151,-9.76413 4.75832,-14.44571c0.98148,-2.98989 1.05915,-6.23355 2.09368,-9.20551c1.38733,-3.98543 3.04975,-5.13205 4.47043,-8.99765c0.56161,-1.52812 0.69164,-3.18663 1.18343,-4.73863c1.49344,-4.71305 3.84094,-9.25548 5.23139,-13.98942c0.88747,-3.02147 0.84393,-6.73703 1.83004,-9.71106c0.52614,-1.58679 1.68419,-2.91299 2.22385,-4.49524c0.83593,-2.45091 1.07043,-5.10026 2.07935,-7.48517c1.95371,-4.53749 2.26006,-9.0362 3.95776,-13.56763c0.39373,-1.05093 1.56208,-1.70308 1.91697,-2.76775c0.34082,-1.02246 -0.32766,-2.2358 0.08303,-3.23225c0.43038,-1.04424 1.65642,-1.56441 2.28159,-2.50507c2.14308,-3.22458 1.46787,-3.90749 3.20861,-7.34661c0.68603,-1.35537 1.89846,-2.43695 2.41232,-3.8665c0.30185,-0.83974 -0.17059,-1.79083 -0.06045,-2.67635c0.22192,-1.78422 0.61406,-3.54646 1.05138,-5.29043c0.61192,-2.44021 2.44693,-4.47476 2.98313,-6.93271c0.34287,-1.57177 -0.2483,-3.2316 -0.0346,-4.82608c0.3449,-2.57344 2.31603,-4.67888 3.0346,-7.17392c0.25198,-0.87494 -0.17731,-1.82979 -0.04815,-2.73108c0.20942,-1.46127 0.70395,-2.86726 1.05591,-4.30088c0,0 0.46985,-1.8794 2.23675,-1.91579c-0.10542,-1.68972 -0.08194,-3.41327 -0.27912,-5.07741c-0.3362,-2.83736 -2.12258,-6.28602 -3,-9l-0.03228,-3.40045c0,0 0,-2.5 2.5,-2.5z" fill="#fffb54"/><path d="M-215,-81.6875c0,-1.38071 1.11929,-2.5 2.5,-2.5c1.38071,0 2.5,1.11929 2.5,2.5c0,1.38071 -1.11929,2.5 -2.5,2.5c-1.38071,0 -2.5,-1.11929 -2.5,-2.5z" fill="#0064ff"/><path d="M204.8426,257.11354c0.37007,0.09719 0.9074,0.37941 0.9074,1.19896c0,1.25 -1.25,1.25 -1.25,1.25c-2.64318,0 -7.19254,0.91657 -9.06331,-1.59284c-0.47316,-0.63468 0.04406,-1.60332 -0.15325,-2.36997c-0.83014,-3.22554 -4.05468,-4.80423 -4.96799,-7.9246c-0.15311,-0.52309 0.54236,-1.22328 0.17482,-1.62575c-0.5306,-0.58103 -1.72024,-0.09609 -2.26539,-0.6635c-1.19278,-1.2415 -1.52011,-3.11686 -1.94144,-4.78615c-0.33634,-1.33258 -0.67793,-2.6639 -1,-4c-0.28381,-1.17736 0.89452,-2.67229 0.15325,-3.63003c-0.45621,-0.58943 -1.33333,-0.66667 -2,-1c-0.1279,-1.84258 0.0114,-2.79943 -0.83583,-4.45131c-0.33831,-0.65963 -1.06093,-1.10751 -1.28763,-1.81332c-0.65274,-2.03229 0.36129,-4.58407 -0.04068,-6.65614c-0.50717,-2.61439 -1.82334,-4.54912 -1.98942,-7.34599c-0.20437,-3.44165 -0.03313,-6.94309 -0.03313,-10.39039c0,-1.86502 -0.41341,-4.48749 0.03344,-6.28719c0.35922,-1.44678 1.63537,-2.55457 2,-4c0.32613,-1.29283 -0.01949,-2.66681 0,-4c1.10243,-2.27222 2.37396,-4.57616 3.77578,-6.67979c2.13343,-3.2015 6.69872,-10.37563 10.33706,-3.8028c1.041,1.88061 -0.03271,4.57536 0.33758,6.56955c0.83225,4.48209 1.01614,8.59336 1.01614,13.20023c0,0.3365 0.00975,4.10804 -0.03344,4.28719c-0.32207,1.3361 -1,2.62563 -1,4c-1.4235,2.847 -0.45127,4.90233 -0.9827,7.91304c-1.42759,8.08767 -2.38702,17.5681 2.63255,24.77067c0.79392,1.13919 1.75666,2.18945 2.87008,3.01912c0.7194,0.53607 1.81647,0.61496 2.32682,1.35283c0.39207,0.56685 -0.29795,1.46596 0.03878,2.06734c0.77889,1.39103 2.76681,1.58498 4.13765,2.39889c0.16792,0.72546 -0.04733,1.6756 0.50376,2.17639c0.43023,0.39096 1.21951,-0.40077 1.73846,-0.1388c1.20153,0.60653 4.33584,4.11267 3.57509,5.73726c-0.46734,0.99801 -2.20544,0.25849 -3.24848,0.61413c-1.47953,0.50446 -3.06178,1.56794 -4.46597,2.60301z" fill="#ffffff"/><path d="M187.73165,165.5625c-0.15443,1 -1.23165,1 -1.23165,1c-0.9103,-0.07865 -2.03124,0.35169 -2.73089,-0.23595c-2.31559,-1.94485 -0.89408,-5.36772 -1.48494,-7.72377c-0.18156,-0.72397 -0.84323,-1.27351 -1.00073,-2.00309c-0.04344,-0.20119 -0.03344,-4.92479 -0.03344,-5.28719c0,-3.24655 -1.28584,-10.40033 1.43379,-12.82516c0.62339,-0.55582 1.675,-0.14454 2.47692,-0.37792c1.43115,-0.41649 2.22516,-2.0495 3.56951,-2.69321c2.01279,-0.96378 5.60503,-0.24768 7.65366,0.0124c0.74759,5.88871 0.36612,11.94848 0.36612,17.88388c0,1.63449 0.7171,6.2741 -0.18669,7.65716c-0.8635,1.32142 -3.07156,1.10227 -4.17943,2.22672c-0.58509,0.59384 -0.51478,1.74571 -1.22672,2.17943c-0.75827,0.46195 -1.77144,0.12446 -2.65716,0.18669z" fill="#ffffff"/></g></g></svg>