<svg version="1.1" xmlns="http://www.w3.org/2000/svg" xmlns:xlink="http://www.w3.org/1999/xlink" width="140.39328" height="55.35686" viewBox="0,0,140.39328,55.35686"><g transform="translate(-170.15087,-161.95564)"><g data-paper-data="{&quot;isPaintingLayer&quot;:true}" fill-rule="nonzero" stroke="none" stroke-linecap="butt" stroke-linejoin="miter" stroke-miterlimit="10" stroke-dasharray="" stroke-dashoffset="0" style="mix-blend-mode: normal"><text transform="translate(170.49837,188.01875) scale(0.69502,0.69502)" font-size="40" xml:space="preserve" fill="#000000" fill-rule="nonzero" stroke="none" stroke-width="1" stroke-linecap="butt" stroke-linejoin="miter" stroke-miterlimit="10" stroke-dasharray="" stroke-dashoffset="0" font-family="Handwriting" font-weight="normal" text-anchor="start" style="mix-blend-mode: normal"><tspan x="0" dy="0">←　↑　→</tspan></text><path d="M307.5,204.8125c0,6.35127 -5.14873,11.5 -11.5,11.5c-6.35127,0 -11.5,-5.14873 -11.5,-11.5c0,-6.35127 5.14873,-11.5 11.5,-11.5c6.35127,0 11.5,5.14873 11.5,11.5z" fill="#ff3000" stroke-width="0"/><path d="M252.5,205.8125c0,6.35127 -5.14873,11.5 -11.5,11.5c-6.35127,0 -11.5,-5.14873 -11.5,-11.5c0,-6.35127 5.14873,-11.5 11.5,-11.5c6.35127,0 11.5,5.14873 11.5,11.5z" fill="#feff58" stroke-width="0"/><path d="M197.5,204.8125c0,6.35127 -5.14873,11.5 -11.5,11.5c-6.35127,0 -11.5,-5.14873 -11.5,-11.5c0,-6.35127 5.14873,-11.5 11.5,-11.5c6.35127,0 11.5,5.14873 11.5,11.5z" fill="#0063ff" stroke-width="0"/></g></g></svg>