<svg xmlns="http://www.w3.org/2000/svg" xmlns:xlink="http://www.w3.org/1999/xlink" version="1.1" width="121.11453247070312" height="164.44461059570312" viewBox="-0.4999781772494316 -0.49994128942489624 121.11453247070312 164.44461059570312"><g><g data-paper-data="{&quot;isPaintingLayer&quot;:true}" fill-rule="nonzero" stroke-linecap="butt" stroke-linejoin="miter" stroke-miterlimit="10" stroke-dasharray="" stroke-dashoffset="0" font-family="none" font-weight="none" font-size="none" text-anchor="none" style="mix-blend-mode: normal"><g id="Group"><path d="M 24.6019 150.5243 L 21.2909 151.9513 L 18.5819 151.3053 L 16.5508 151.3053 L 14.4809 155.5563 L 11.3579 156.8323 L 8.1969 156.8323 L 5.4879 155.4803 L 3.7579 152.5523 L 3.3059 149.0233 L 4.2089 146.9203 L 6.2409 144.4423 L 2.4779 141.8143 L 1.3499 139.4863 L 1.3499 135.8823 L 2.7789 133.4793 L 5.1119 131.6013 L 8.4229 131.0013 L 11.8849 132.2773 L 14.2019 134.0793 C 14.2019 134.0793 16.0979 138.3603 16.0979 138.6603 C 16.0979 138.9603 17.2269 139.5613 17.2269 139.5613 L 20.5379 137.9093 L 23.9999 137.9093 L 26.5579 139.5613 L 27.6119 142.2643 L 26.5579 146.9203 Z " id="Shape" fill="#ffffff" stroke-width="1" stroke="none"/><path d="M 38.9738 152.8523 L 41.3068 152.3273 L 43.5639 153.6783 L 44.2418 157.5873 L 43.7899 160.2863 L 42.3598 161.9383 C 42.3598 161.9383 40.4039 162.4643 40.1028 162.3893 C 39.8019 162.3143 38.1458 161.7883 38.1458 161.7883 L 36.4159 159.6863 L 34.8349 161.2623 L 33.2549 161.2623 C 33.2549 161.2623 30.8469 159.9113 30.6969 159.6863 C 30.5459 159.4603 30.6969 156.4573 30.6969 156.4573 L 30.6969 153.9033 L 32.9539 152.7773 L 35.1359 152.7773 L 37.3538 153.9033 Z " id="Shape" fill="#ffffff" stroke-width="1" stroke="none"/><path d="M 16.9639 138.2393 C 18.1599 137.7253 19.2599 136.9773 20.4479 136.7963 C 23.2379 136.3683 25.8739 136.8213 27.6669 139.3263 C 28.0399 139.8463 28.2609 140.5543 28.3299 141.1993 C 28.7579 145.1703 27.2739 148.5443 24.8209 151.5313 C 23.5999 153.0193 20.0689 153.3993 18.4479 152.3803 C 18.2279 152.2413 17.9939 152.1243 17.6729 151.9483 C 17.1529 153.0073 16.8249 154.1813 16.1419 155.1553 C 14.2169 157.9043 10.6779 158.5403 7.5799 157.8553 C 6.4849 157.6123 5.6479 156.9533 4.7799 156.2723 C 1.7259 153.8773 1.3969 147.5573 4.0139 144.8833 C 3.5689 144.4023 3.1739 143.8553 2.6659 143.4503 C 1.2029 142.2873 0.3488 140.7283 0.0889 138.9693 C -0.0781 137.8453 -0.0442 136.4463 0.4918 135.5083 C 2.1288 132.6503 4.1228 130.0323 7.8368 129.7483 C 8.4039 129.7063 8.9968 129.8723 9.5649 129.9983 C 14.1119 131.0013 16.6189 133.8173 16.9639 138.2393 Z M 4.0539 151.0993 C 4.2569 151.7013 4.4169 152.6443 4.8668 153.4203 C 6.7098 156.5893 11.9318 156.8533 14.3039 154.0043 C 15.4498 152.6293 15.8529 151.0013 15.5568 149.1993 C 15.4598 148.6073 15.3319 147.8843 16.2919 147.7303 C 17.2549 147.5763 17.4279 148.2623 17.7719 148.9043 C 18.0699 149.4573 18.4968 150.0623 19.0279 150.3533 C 20.7269 151.2843 23.2048 150.6043 24.1469 148.8963 C 24.9718 147.4003 25.6409 145.8073 26.2609 144.2113 C 26.7159 143.0393 26.7489 141.7033 26.0839 140.6573 C 24.9649 138.8953 21.8639 138.2813 20.2389 139.0793 C 18.9149 139.7283 18.0329 140.7013 17.5389 142.0793 C 17.1719 143.1033 16.3919 143.3923 15.6569 142.8403 C 15.0259 142.3643 14.5439 140.7633 14.7449 139.9843 C 15.1529 138.4043 15.2259 136.9173 14.2869 135.3903 C 12.5269 132.5253 9.9029 131.5563 6.7309 132.1533 C 4.8828 132.5023 3.9378 133.9163 2.8459 135.1783 C 1.5389 136.6903 1.6439 138.3943 2.4049 140.0423 C 3.1389 141.6323 4.3068 142.8023 6.2529 142.8533 C 7.1929 142.8783 7.5739 143.4843 7.7539 144.3563 C 7.9539 145.3213 7.2269 145.4153 6.6649 145.6093 C 5.5839 145.9813 4.8199 146.6563 4.5669 147.7643 C 4.3419 148.7443 4.2539 149.7563 4.0539 151.0993 Z " id="Shape" fill="#30419a" stroke-width="1" stroke="none"/><path d="M 36.4519 161.3593 C 33.7118 163.8693 30.1509 161.3023 29.6009 158.9343 C 29.3829 157.9903 29.2129 157.0043 29.2389 156.0433 C 29.2949 154.0343 30.2929 152.5013 32.1639 151.7583 C 33.7779 151.1173 35.3359 151.4303 36.6279 152.6833 C 36.7319 152.7863 36.8609 152.8623 37.0029 152.9683 C 37.2509 152.7693 37.5019 152.6073 37.7029 152.3993 C 39.8099 150.2143 43.9569 151.5853 44.6168 154.0313 C 45.1309 155.9393 45.9058 157.8093 45.1669 159.8503 C 44.4699 161.7713 42.0769 164.1923 39.2049 163.2243 C 38.0799 162.8443 36.9529 162.7323 36.4519 161.3593 Z M 30.9599 156.5633 C 31.3539 157.5863 31.5849 158.7253 32.1999 159.5913 C 32.5749 160.1173 33.5539 160.4653 34.2399 160.4313 C 34.6729 160.4113 35.2599 159.5953 35.4269 159.0333 C 35.6789 158.1863 36.2859 157.8743 36.9109 157.9903 C 37.3219 158.0653 37.8359 158.7233 37.9249 159.1923 C 38.3309 161.3473 40.1829 162.1483 42.0789 160.9973 C 43.2449 160.2893 43.6109 159.2083 43.5589 158.0493 C 43.4929 156.5763 43.7829 154.8903 42.2319 153.8783 C 41.4679 153.3813 40.6029 152.9923 39.7129 153.5323 C 39.0229 153.9503 38.0459 154.2853 38.5969 155.4793 C 38.6569 155.6113 38.4499 155.9433 38.2839 156.0893 C 37.4359 156.8283 36.7889 156.6393 36.3309 155.5773 C 36.1319 155.1123 35.9959 154.4803 35.6279 154.2563 C 34.6999 153.6883 33.6459 153.3963 32.5759 153.9963 C 31.6079 154.5403 31.1189 155.3663 30.9599 156.5633 Z " id="Shape" fill="#30419a" stroke-width="1" stroke="none"/></g><path d="M 101.0219 67.0313 L 101.0219 81.8243 L 100.1949 82.8003 L 88.8319 86.6133 L 67.0099 91.9613 L 60.7879 93.2383 L 46.5419 87.3063 L 35.3299 82.9503 L 35.2549 81.1483 L 35.5559 69.8093 L 33.5999 54.5663 L 33.2229 36.3933 L 34.1259 34.9673 L 53.3899 29.0343 L 79.5429 26.7823 L 83.0379 27.7583 L 99.6679 33.7653 C 100.7079 34.1413 101.0219 67.0313 101.0219 67.0313 Z " id="Shape" fill="#afd7f2" stroke-width="1" stroke="none"/><path d="M 57.1518 90.3843 L 77.9958 87.7563 L 78.5978 92.4873 L 84.3929 94.6643 L 90.3369 96.0163 L 95.6499 95.4153 L 99.2169 94.4393 L 103.5059 92.3373 L 105.9889 97.3683 L 100.3449 100.0713 L 95.1529 101.4983 L 90.3369 101.6483 L 85.4459 100.9723 L 81.5328 99.7713 L 78.6739 99.2453 L 78.6739 105.7033 L 76.8679 112.6113 L 73.7818 120.3463 L 69.5688 125.3023 L 65.3548 127.4793 L 60.7878 127.4793 L 57.1518 125.9783 L 53.6908 121.9983 L 52.0358 118.4693 L 51.1328 113.4373 L 51.8849 107.2803 L 52.9389 104.5773 L 54.2929 102.0993 L 46.8429 105.3273 L 40.3719 106.0033 L 34.2019 105.1023 L 28.7079 102.5493 L 27.5799 100.5223 L 30.7399 97.7433 L 34.1259 99.0203 L 40.8229 100.5223 L 48.4989 98.4193 L 51.9599 96.3923 L 55.3459 93.2383 L 57.1519 90.3843 " id="Shape" fill="#afd7f2" stroke-width="1" stroke="none"/><path d="M 74.0829 50.9613 L 74.0829 60.5733 L 65.5799 62.1623 L 62.6459 60.0103 L 61.5919 57.1943 L 62.7959 53.9653 L 65.3549 52.1633 L 69.4929 50.9613 L 74.0829 50.9613 " id="Shape" fill="#ffffff" stroke-width="1" stroke="none"/><path d="M 92.9708 46.6813 L 94.6258 53.8153 L 89.9618 56.2463 L 85.8968 56.5623 L 84.0159 55.8423 L 82.8879 53.5893 L 82.8879 51.4143 L 84.4678 49.3303 L 87.6279 47.6573 L 92.9709 46.6813 " id="Shape" fill="#ffffff" stroke-width="1" stroke="none"/><path d="M 64.8929 1.4763 L 72.8788 14.9173 L 80.1028 29.2603 L 80.7969 31.2123 L 77.0928 34.5163 L 72.8788 36.0933 L 65.9449 37.0693 L 58.8828 35.4923 L 55.2708 32.4143 L 54.8199 29.4853 L 56.3248 24.0783 L 58.7328 15.6683 L 62.8708 4.1043 L 64.8928 1.4763 " id="Shape" fill="#f7ec1e" stroke-width="1" stroke="none"/><path d="M 42.8548 54.1903 L 45.1878 56.2463 L 48.7249 60.4233 L 49.7779 65.3413 L 47.1439 73.2633 L 42.8549 77.0933 L 33.7499 76.5673 L 21.1839 74.8143 L 11.4759 72.5123 L 10.7989 71.7623 L 15.1639 67.6323 L 21.4089 63.0143 L 28.1819 58.6963 L 35.0289 54.7913 L 39.4689 53.5893 L 42.8549 54.1903 " id="Shape" fill="#f7ec1e" stroke-width="1" stroke="none"/><path d="M 100.4959 44.2033 L 109.0738 45.8553 L 117.6518 47.8823 L 117.6518 48.9343 L 101.3988 62.1623 L 100.4958 44.2033 " id="Shape" fill="#f7ec1e" stroke-width="1" stroke="none"/><path d="M 78.6739 102.0233 L 78.2969 106.0783 L 77.2439 109.0073 L 73.1048 109.5333 L 70.1659 107.6183 L 68.7408 104.3513 L 68.7408 101.2733 L 70.1659 98.7953 L 73.4809 97.4433 L 76.4908 97.4433 L 78.6739 99.2453 L 78.6739 102.0233 " id="Shape" fill="#f7ec1e" stroke-width="1" stroke="none"/><path d="M 93.1968 64.1773 L 93.9488 65.3413 L 95.0028 77.7693 L 67.8378 85.4283 L 67.1228 72.1373 L 67.8378 70.6353 L 93.1968 64.1773 " id="Shape" fill="#fcf6b6" stroke-width="1" stroke="none"/><path d="M 30.7399 97.4433 L 26.9019 100.7473 L 24.3439 100.7473 L 21.0329 100.0713 L 17.6469 98.3443 L 15.0129 94.1393 L 14.4489 90.5343 L 15.6149 88.9583 L 17.2709 88.9583 L 19.6029 90.6103 L 20.9579 92.4873 L 22.5949 94.1393 L 24.5699 94.8533 L 26.9019 93.6883 L 27.5799 91.8863 L 26.2249 87.7563 L 25.0959 84.2273 L 26.3759 82.8003 L 28.3709 82.4253 L 30.2889 83.6263 L 32.0949 86.6133 L 33.2229 89.0333 L 33.2229 91.5863 L 33.2229 94.1393 L 31.8689 96.6173 L 30.7399 97.4433 " id="Shape" fill="#e63c32" stroke-width="1" stroke="none"/><path d="M 111.8578 84.7523 L 110.6538 86.6133 L 109.0738 90.1593 L 109.4498 92.6373 L 111.3318 94.4393 L 113.2878 95.3403 L 116.2228 95.7913 L 118.2538 96.6173 L 118.9318 98.1943 L 117.6519 100.2213 L 115.6959 101.4233 L 112.4599 101.4233 L 107.7948 99.0953 L 104.5589 94.4393 L 103.7309 91.5863 L 104.4839 87.7563 L 105.9889 85.0533 L 108.3969 83.0253 L 110.1279 82.4253 L 111.8579 83.0253 L 111.8579 84.7523 " id="Shape" fill="#e63c32" stroke-width="1" stroke="none"/><path d="M 63.9999 128.1553 L 65.9449 138.3683 L 64.8929 139.0443 L 61.1409 139.0443 L 49.7779 136.9413 L 48.4238 135.5893 L 48.4238 134.6883 L 55.5718 125.3773 L 60.2378 127.4793 L 63.9998 128.1553 " id="Shape" fill="#e63c32" stroke-width="1" stroke="none"/><path d="M 105.6248 98.2486 C 105.6189 98.2497 105.6128 98.2507 105.6078 98.2507 C 105.4198 98.2716 105.0899 98.6277 104.8938 98.7267 C 104.3348 99.0087 103.8418 99.3387 103.2808 99.6257 C 102.8678 99.8387 102.4738 100.0807 102.0668 100.2877 C 101.3909 100.6317 100.6848 100.9717 99.9468 101.1577 C 99.2538 101.3337 98.5798 101.6107 97.8859 101.7667 C 96.9099 101.9857 95.9119 102.0877 94.9178 102.1967 C 92.0369 102.5147 89.1208 102.3827 86.2588 101.9537 C 84.6538 101.7137 83.1058 101.1047 81.5258 100.6857 C 81.0358 100.5547 80.5279 100.4877 79.9289 100.3727 C 79.8338 100.7487 79.6999 101.0937 79.6628 101.4517 C 79.4438 103.5737 79.3528 105.7167 79.0038 107.8167 C 78.7199 109.5297 78.1928 111.2107 77.6709 112.8717 C 77.0949 114.6987 76.5798 116.5797 75.7149 118.2707 C 74.9709 119.7207 74.1469 121.1287 73.2749 122.5057 C 72.8909 123.1107 72.4139 123.5397 71.9889 124.0987 C 71.6769 124.5097 71.3819 124.8857 71.0479 125.2707 C 70.4119 126.0027 69.5699 126.6467 68.6878 127.0617 C 67.8728 127.4467 67.0848 127.8097 66.2458 128.1347 C 66.1238 128.1827 65.3958 128.3187 65.3518 128.3647 C 65.1248 128.5947 65.3688 129.1307 65.4448 129.3497 C 65.8228 130.4347 65.8438 131.7017 66.0698 132.8437 C 66.3558 134.2887 66.6738 135.7287 66.9718 137.1717 C 67.3258 138.8917 66.3708 140.1547 64.6288 140.1037 C 62.8428 140.0537 61.0278 140.1047 59.2808 139.7987 C 56.1028 139.2427 52.9548 138.5027 49.8168 137.7447 C 48.2088 137.3567 47.3508 136.1977 47.3318 134.7257 C 47.3298 134.5377 47.3738 134.3097 47.4828 134.1637 C 49.5808 131.3127 51.6498 128.4397 53.8278 125.6517 C 54.4568 124.8467 54.3918 124.3157 53.8168 123.6107 C 51.6908 120.9967 50.6758 118.0137 50.4228 114.6357 C 50.2158 111.8547 50.7868 109.2687 51.5118 106.6667 C 51.6588 106.1417 51.8098 105.5837 51.9808 105.0707 C 52.0658 104.8147 52.4448 103.9497 52.6288 103.8327 C 51.5188 104.5377 50.6118 105.0267 49.3308 105.3687 C 47.9698 105.7307 46.5988 106.0757 45.2018 106.2697 C 39.5378 107.0567 34.1658 106.3347 29.0728 103.6787 C 28.3448 103.2987 27.6928 102.7977 27.0218 102.3297 C 26.7638 102.1497 26.4968 101.8767 26.1898 101.8137 C 25.8478 101.7427 25.4778 101.9347 25.1298 101.9077 C 24.2898 101.8447 23.3298 101.5907 22.5098 101.3877 C 20.4828 100.8867 18.6528 99.8377 17.0548 98.5147 C 14.7058 96.5687 13.6348 94.1987 13.4248 91.2927 C 13.3238 89.8867 13.7838 88.6887 14.9718 87.9137 C 16.2138 87.1047 17.5778 87.2717 18.6288 88.1817 C 19.7098 89.1177 20.5648 90.3157 21.4998 91.4157 C 21.8128 91.7857 22.0618 92.2097 22.3528 92.5997 C 23.1868 93.7227 24.3978 93.5347 25.4888 93.3267 C 26.6358 93.1067 26.9898 92.1937 26.4898 90.8107 C 26.0888 89.6997 25.5358 88.6347 24.9629 87.5967 C 24.1419 86.1087 23.8459 84.5707 24.4858 82.9807 C 25.0299 81.6317 27.5448 80.8617 29.1388 81.4687 C 30.8718 82.1287 31.9029 83.5507 32.6518 85.0977 C 33.8398 87.5467 34.7768 90.1827 34.4418 92.9297 C 34.2668 94.3637 33.1748 95.5337 32.6028 96.8107 C 33.6658 97.3677 34.7278 97.9407 35.7488 98.5787 C 37.2178 99.4977 38.7848 99.5487 40.4748 99.5517 C 43.2618 99.5547 45.6038 98.4977 48.0938 97.4357 C 49.4948 96.8387 50.7558 95.9797 51.9028 94.9857 C 52.4938 94.4727 53.0468 93.9237 53.6018 93.3727 C 54.0498 92.9267 54.2598 92.4297 54.6628 91.9727 C 54.9089 91.6937 55.3259 91.5657 55.6198 91.3247 C 54.9158 91.3417 54.3378 90.8607 53.6808 90.6887 C 52.9418 90.4957 52.2538 90.3537 51.5138 90.0877 C 49.8698 89.4947 48.2168 88.9217 46.5888 88.2857 C 42.6818 86.7567 38.7928 85.1847 34.9138 83.5877 C 34.6348 83.4727 34.3378 83.0087 34.3278 82.6977 C 34.2708 80.9767 34.3008 79.2537 34.3008 77.4537 C 33.1028 77.2207 31.9808 76.9307 30.8398 76.7927 C 28.2868 76.4837 25.7078 76.3297 23.1698 75.9517 C 21.8388 75.7537 20.4918 75.4187 19.1768 75.2517 C 18.2658 75.1357 17.4078 75.0177 16.5088 74.7957 C 15.2158 74.4777 13.9668 74.1547 12.6738 73.8097 C 11.8158 73.5817 10.8678 73.4867 10.1818 72.8737 C 9.2358 72.0297 9.7388 71.1027 10.5758 70.3747 C 12.9778 68.2907 15.3618 66.1737 17.8858 64.2437 C 20.0658 62.5767 22.4288 61.1477 24.7058 59.6047 C 25.9978 58.7297 27.2878 57.8507 28.5778 56.9707 C 29.3738 56.4277 30.2428 55.9997 31.0408 55.4607 C 31.5488 55.1177 32.5318 54.7467 32.7478 54.1187 C 32.9298 53.5887 32.7588 52.9187 32.8178 52.3647 C 32.8978 51.6107 32.8218 50.8457 32.7778 50.0837 C 32.6848 48.4487 32.5698 46.8157 32.4678 45.1817 C 32.3258 42.9057 32.0508 40.6297 32.0778 38.3557 C 32.0938 36.9407 32.4398 35.4897 32.8968 34.1417 C 33.0428 33.7107 33.9938 33.4777 34.6178 33.2987 C 35.8598 32.9407 37.1428 32.7227 38.3868 32.3727 C 41.6218 31.4617 44.8328 30.4657 48.0778 29.5947 C 49.0418 29.3357 49.9938 29.0347 50.9588 28.7757 C 51.7238 28.5717 52.3058 28.2417 53.0968 28.0767 C 53.5748 27.9767 54.0348 27.8237 54.5128 27.7277 C 54.5768 26.6107 54.8888 25.3347 55.2558 24.2867 C 55.6548 23.1447 55.8078 21.9367 56.1528 20.7797 C 57.1178 17.5317 58.0338 14.2537 59.2678 11.1047 C 60.6228 7.6467 61.2118 3.8677 63.4868 0.7817 C 64.1738 -0.1483 64.9478 -0.2943 65.6328 0.5927 C 66.2858 1.4367 66.7678 2.4147 67.3148 3.3387 C 67.7848 4.1317 68.2388 4.9347 68.7028 5.7307 C 70.1328 8.1727 71.5688 10.6117 72.9908 13.0577 C 73.7398 14.3437 74.5198 15.6157 75.1878 16.9427 C 75.9848 18.5257 76.6278 20.1867 77.4298 21.7667 C 78.1008 23.0887 78.8498 24.3817 79.6878 25.6027 C 79.9098 25.9267 80.5928 25.9167 81.0468 26.1037 C 82.6808 26.7757 84.2758 27.5637 85.9458 28.1287 C 89.0548 29.1807 92.2098 30.0997 95.3418 31.0887 C 96.9888 31.6097 98.6428 32.1207 100.2568 32.7327 C 100.5458 32.8427 100.7818 33.4087 100.8288 33.7907 C 101.0378 35.5017 101.1908 37.2197 101.3208 38.9387 C 101.4058 40.0607 101.3648 41.1927 101.4898 42.3087 C 101.5268 42.6487 101.8718 43.1627 102.1658 43.2347 C 103.8708 43.6487 105.6048 43.9257 107.3128 44.3297 C 108.0838 44.5127 108.8338 44.7837 109.6018 44.9617 C 110.4638 45.1617 111.3578 45.1847 112.2158 45.4097 C 113.0378 45.6257 113.8378 45.8067 114.6558 45.9707 C 115.9188 46.2217 118.8648 46.4907 118.6848 48.3477 C 118.5978 49.2447 117.6968 49.8927 117.1018 50.4727 C 116.3328 51.2217 115.5428 51.9497 114.7258 52.6457 C 112.8078 54.2777 110.7938 55.7937 108.8258 57.3667 C 107.4888 58.4357 106.1598 59.5147 104.8308 60.5947 C 104.1398 61.1547 103.3928 61.6637 102.7968 62.3117 C 102.4788 62.6597 102.2818 63.2537 102.2828 63.7357 C 102.2988 68.2807 102.3768 72.8277 102.4158 77.3737 C 102.4268 78.6307 102.4288 79.8947 102.3188 81.1447 C 102.1628 82.9157 101.3018 83.7887 99.5968 84.2297 C 95.5008 85.2877 91.4188 86.3987 87.3188 87.4397 C 86.0608 87.7587 84.7398 87.8387 83.4908 88.1807 C 82.2848 88.5117 81.1318 89.0417 79.9558 89.4817 C 79.7138 89.5727 79.4668 89.6537 79.1868 89.7507 C 79.0998 90.4817 79.4078 90.8427 80.0588 91.3007 C 82.4478 92.9787 85.2288 93.6657 87.9118 94.5547 C 90.4178 95.3857 93.0338 95.3177 95.5588 94.4727 C 97.4608 93.8357 99.3638 93.1637 101.1788 92.3207 C 102.0908 91.8977 102.8178 91.1747 102.9308 89.9087 C 103.1178 87.8267 103.6768 85.7877 105.0328 84.1117 C 106.2568 82.5987 107.7738 81.2907 109.7248 81.0577 C 110.5838 80.9557 111.6898 81.6807 112.4448 82.3137 C 113.1518 82.9067 113.4738 83.8857 112.9058 84.8687 C 112.0728 86.3097 111.2548 87.7597 110.4048 89.1917 C 110.0618 89.7707 109.7078 90.7787 109.8138 91.4707 C 109.8678 91.8207 110.0278 92.1387 110.2128 92.4277 C 111.2178 94.0057 112.7858 94.0427 114.4728 94.3737 C 115.5898 94.5947 116.7948 94.5207 117.8458 94.8997 C 119.1358 95.3647 120.1628 96.4807 120.1128 97.8517 C 120.0528 99.4677 119.3398 100.9147 117.6598 101.7167 C 115.0588 102.9587 112.4198 103.2777 109.9178 101.7737 C 109.1738 101.3267 108.5028 100.7717 107.8568 100.1957 C 107.5218 99.8967 107.1928 99.5887 106.8638 99.2837 C 106.5608 99.0037 106.1028 98.2177 105.6248 98.2487 Z M 99.0339 35.3476 C 96.9569 36.0256 95.2469 36.6956 93.4799 37.1366 C 90.3319 37.9216 87.1389 38.5216 83.9859 39.2836 C 79.6949 40.3207 75.4179 41.4126 71.1459 42.5276 C 67.5039 43.4776 63.8999 44.5836 60.2329 45.4216 C 59.0449 45.6926 59.1639 46.2207 59.2319 47.0446 C 59.4029 49.1076 59.5739 51.1746 59.6469 53.2426 C 59.7389 55.8606 59.7219 58.4817 59.7739 61.1017 C 59.8219 63.5677 59.8899 66.0327 59.9659 68.4976 C 60.0169 70.1716 60.0819 71.8457 60.1669 73.5177 C 60.3919 77.9817 60.5979 82.4487 60.8809 86.9086 C 60.9869 88.5796 61.2829 90.2387 61.5089 92.0326 C 62.6969 91.8006 63.7969 91.6346 64.8719 91.3687 C 68.4029 90.4916 71.9249 89.5677 75.4539 88.6816 C 77.3419 88.2077 79.2549 87.8267 81.1299 87.3076 C 84.1089 86.4846 87.0559 85.5477 90.0339 84.7226 C 92.2889 84.0976 94.5779 83.5947 96.8389 82.9896 C 97.5919 82.7876 98.2849 82.3136 99.0439 82.1816 C 99.9859 82.0166 100.4539 81.2737 100.4519 80.2156 C 100.4479 78.6156 100.3719 77.0166 100.3479 75.4166 C 100.3209 73.6466 100.2409 71.8856 100.1699 70.1156 C 100.0669 67.5536 100.0689 65.0316 100.0689 62.4697 C 100.0689 61.1716 100.0689 59.8747 100.0689 58.5777 C 100.0689 56.9847 99.9699 55.4177 99.9679 53.8376 C 99.9669 52.6096 99.9679 51.3807 99.9679 50.1526 C 99.9679 49.1837 99.9379 48.2207 99.9159 47.2526 C 99.8969 46.4266 99.8429 45.6226 99.8029 44.8166 C 99.6539 41.6796 99.3039 38.5526 99.0339 35.3476 Z M 58.9599 90.7636 C 59.1189 90.3286 59.0089 89.6816 59.0659 89.2216 C 59.1529 88.5276 59.0868 87.7956 59.0439 87.0986 C 58.9479 85.5336 58.8709 83.9676 58.8069 82.4016 C 58.7369 80.6876 58.7309 78.9706 58.6889 77.2557 C 58.6409 75.2377 58.6159 73.2186 58.5209 71.2037 C 58.4379 69.4267 58.3219 67.6457 58.1339 65.8767 C 57.7679 62.3997 58.3679 58.9147 57.9079 55.4267 C 57.6019 53.1057 57.7729 50.7257 57.5699 48.3857 C 57.4869 47.4097 57.2689 46.1207 56.6129 45.5937 C 55.5199 44.7157 54.0419 44.2927 52.6949 43.7567 C 51.2659 43.1897 49.7769 42.7717 48.3569 42.1877 C 44.0179 40.4057 39.6979 38.5757 35.3709 36.7627 C 34.5579 36.4217 33.9569 36.2727 34.0139 37.5567 C 34.1549 40.7217 34.2109 43.8897 34.3049 47.0577 C 34.3289 47.9067 34.4199 48.7327 34.4419 49.5787 C 34.4659 50.4767 34.3389 51.3747 34.4159 52.2717 C 34.4749 52.9667 34.1699 53.7447 35.1789 53.5057 C 36.0459 53.3007 36.8859 52.9927 37.7579 52.8017 C 40.9059 52.1127 43.3859 52.9737 45.7449 55.1027 C 47.0649 56.2937 48.1649 57.7087 49.0949 59.2177 C 50.6509 61.7397 51.2049 64.4247 50.3509 67.1687 C 49.3199 70.4747 48.1939 73.8247 45.2789 76.1197 C 44.9119 76.4086 44.7189 76.9427 44.3329 77.1776 C 43.6889 77.5717 42.9499 78.0787 42.2579 78.0696 C 40.3919 78.0427 38.5299 77.7617 36.6639 77.5996 C 36.5009 77.5856 36.3259 77.6967 36.2859 77.7097 C 36.2479 78.3707 36.2469 78.9117 36.1839 79.4477 C 35.8909 81.9287 36.1309 82.4197 38.1909 83.2157 C 40.4139 84.0757 42.6469 84.9127 44.8829 85.7397 C 48.4719 87.0667 52.0689 88.3757 55.6619 89.6957 C 56.3049 89.9316 56.9529 90.2497 57.5989 90.4587 C 58.0019 90.5887 58.6009 90.5067 58.9369 90.8207 C 58.9449 90.8037 58.9519 90.7846 58.9599 90.7637 Z M 12.2468 71.2996 C 12.1438 71.4106 12.0438 71.5226 11.9438 71.6356 C 12.1779 71.8817 13.0829 72.0346 13.4569 72.1727 C 14.2079 72.4487 14.9989 72.6667 15.7779 72.8457 C 17.7768 73.3057 19.7808 73.7917 21.8099 74.0627 C 25.1069 74.5027 28.4229 74.7937 31.7339 75.1197 C 35.1879 75.4587 38.6419 75.8157 42.1039 76.0357 C 42.7439 76.0756 43.6189 75.6716 44.0509 75.1807 C 46.5749 72.3127 48.1969 68.9667 48.5269 65.1487 C 48.6449 63.7937 48.4939 62.1826 47.8389 61.0477 C 46.7969 59.2437 45.3019 57.6747 43.8629 56.1327 C 42.4679 54.6387 40.6649 53.8427 38.5879 54.2977 C 35.9529 54.8747 33.4539 55.8577 31.2069 57.3837 C 27.3329 60.0147 23.4149 62.5877 19.6299 65.3437 C 17.1819 67.1267 14.3449 69.0287 12.2469 71.2997 Z M 55.5868 29.8576 C 55.9728 30.8176 56.1899 31.8246 56.7298 32.6086 C 57.9238 34.3426 59.8058 35.0417 61.7818 35.4847 C 64.2028 36.0277 66.6589 36.2167 69.1108 35.8207 C 72.1998 35.3226 75.3288 34.9587 77.9238 32.8697 C 79.2718 31.7847 79.7779 30.5737 79.0748 29.0337 C 78.2878 27.3077 77.4998 25.5827 76.6668 23.8797 C 74.8008 20.0617 72.9288 16.2477 71.0078 12.4577 C 70.5908 11.6347 69.9378 10.9357 69.4248 10.1567 C 68.7708 9.1657 68.1119 8.1737 67.5279 7.1417 C 66.7909 5.8417 66.1309 4.5007 65.4298 3.1817 C 65.0958 2.5547 64.6649 2.4747 64.2688 3.0947 C 63.8298 3.7847 63.3608 4.4847 63.0828 5.2447 C 62.4318 7.0287 61.8928 8.8537 61.2958 10.6587 C 60.0618 14.3887 58.7478 18.0947 57.6078 21.8537 C 56.8208 24.4447 56.2718 27.1077 55.5868 29.8577 Z M 76.4709 110.7886 C 76.6039 110.4997 76.7478 110.1696 76.7238 109.8526 C 76.3079 109.8336 75.8178 110.2326 75.3958 110.3336 C 74.8398 110.4646 74.2609 110.4826 73.6938 110.4286 C 72.6578 110.3306 71.3679 110.0416 70.5949 109.3226 C 69.8299 108.6106 69.1009 107.8056 68.5639 106.9046 C 67.7348 105.5096 67.2449 103.9656 67.4389 102.3426 C 67.5388 101.4926 68.0558 100.6986 68.2919 99.8536 C 68.8339 97.9076 70.3608 96.9626 72.0899 96.5916 C 73.9429 96.1946 75.9509 95.4846 77.8399 97.2606 C 77.5649 94.7576 77.3259 92.5736 77.0739 90.2816 C 75.0359 90.7266 73.1289 91.1116 71.2369 91.5636 C 68.8799 92.1266 66.5379 92.7546 64.1859 93.3346 C 62.8239 93.6706 61.2899 93.6836 61.0139 95.6036 C 60.9409 96.1096 60.4789 96.5756 60.1449 97.0236 C 59.5669 97.7996 58.9699 98.5636 58.3429 99.2986 C 57.5269 100.2526 56.6759 101.1766 55.8339 102.1076 C 55.4839 102.4946 54.9989 102.8056 54.7779 103.2526 C 54.2639 104.2916 53.8219 105.3726 53.4519 106.4716 C 53.2359 107.1156 53.0499 107.7266 53.0309 108.4096 C 53.0089 109.1756 53.2379 109.5006 53.7069 110.0796 C 54.5189 111.0846 55.6469 111.7166 56.7149 112.4136 C 57.7829 113.1106 59.0019 113.6786 60.1979 114.0996 C 63.1019 115.1246 66.1299 116.2216 69.2629 115.8476 C 70.6509 115.6826 72.1029 115.5626 73.3879 114.9646 C 74.0279 114.6666 74.6049 114.2466 75.0439 113.6886 C 75.5309 113.0706 75.6519 112.2746 76.0409 111.5996 C 76.1609 111.3896 76.3289 111.0956 76.4709 110.7886 Z M 96.6499 34.3826 C 97.0399 34.2677 97.4529 34.1007 97.4639 33.8766 C 97.4849 33.4446 96.2469 33.0876 95.9469 32.9877 C 94.8989 32.6397 93.8289 32.2677 92.8079 31.7786 C 91.7849 31.2887 90.5729 31.1656 89.4849 30.8157 C 88.6759 30.5556 87.9169 30.1707 87.1029 29.9347 C 84.8999 29.2957 82.7589 28.5147 80.5809 27.7966 C 80.9829 29.0887 81.2789 30.0096 81.5519 30.9377 C 81.6199 31.1716 81.7059 31.4647 81.6259 31.6686 C 80.6959 34.0177 78.8779 35.4517 76.5839 36.3056 C 73.7069 37.3796 70.6819 37.7167 67.6399 37.9937 C 64.8329 38.2486 62.1829 37.5537 59.6359 36.6326 C 58.1259 36.0866 56.7529 35.1946 55.6849 33.9926 C 55.1289 33.3666 54.7049 32.6746 54.2949 31.9487 C 54.1389 31.6716 53.9019 31.3987 53.7779 31.1086 C 53.4909 30.4337 53.7419 29.8396 52.7579 30.0087 C 51.8209 30.1707 50.8939 30.5797 49.9719 30.8237 C 49.0579 31.0657 48.1709 31.3577 47.2649 31.6277 C 46.0859 31.9797 44.9159 32.3406 43.7249 32.6787 C 41.8709 33.2067 39.9749 33.7307 38.1599 34.3587 C 37.5249 34.5787 36.6929 34.7727 36.1589 35.2067 C 40.2999 36.8797 44.4539 38.5787 48.6259 40.2337 C 50.7849 41.0907 53.0629 41.6957 55.1299 42.7267 C 57.3269 43.8237 59.4939 43.6387 61.6709 43.1187 C 65.8459 42.1217 69.9749 40.9397 74.1409 39.8987 C 77.8799 38.9647 81.6389 38.1146 85.3909 37.2336 C 87.5789 36.7186 89.7849 36.2707 91.9539 35.6846 C 93.3299 35.3136 94.6549 34.9236 96.0189 34.5436 C 96.1289 34.5126 96.3839 34.4596 96.6499 34.3826 Z M 52.4579 111.5726 C 52.4469 111.6426 52.4109 111.8106 52.3958 111.9806 C 52.0879 115.5246 53.1589 118.7666 54.8698 121.7596 C 56.2078 124.1006 58.0658 126.0756 60.9588 126.4776 C 63.7868 126.8706 66.5418 126.4956 68.7798 124.5946 C 69.6408 123.8636 70.3278 123.0336 71.0308 122.1646 C 71.7628 121.2586 72.6158 120.4736 73.2088 119.4596 C 73.5568 118.8646 74.5398 117.2786 74.2378 116.5856 C 73.6158 116.9116 73.1398 117.1756 72.4588 117.4026 C 71.7978 117.6206 71.1128 117.7536 70.4228 117.8306 C 67.2448 118.1836 63.8488 117.7226 60.8388 116.6826 C 59.3118 116.1546 57.8478 115.4556 56.4698 114.6136 C 55.7518 114.1756 55.0588 113.6986 54.3888 113.1896 C 54.1388 112.9996 52.4149 111.8456 52.4578 111.5726 Z M 102.2518 60.3436 C 103.7408 59.2706 105.0558 58.4136 106.2648 57.4266 C 108.1658 55.8756 109.9648 54.2006 111.8638 52.6466 C 113.4028 51.3866 115.0238 50.2306 116.8638 48.8356 C 111.7448 46.9886 106.6138 46.6846 101.5888 45.1346 C 101.6228 50.2656 101.6398 55.2056 102.2518 60.3436 Z M 24.1209 99.8996 C 25.7479 100.0066 27.0479 99.2316 28.2549 98.2396 C 28.6289 97.9326 28.9909 97.6296 29.3739 97.3206 C 29.9709 96.8356 30.6119 96.3906 31.0779 95.7626 C 31.6149 95.0376 32.2039 94.2596 32.4319 93.3726 C 32.6719 92.4386 32.3849 91.3666 32.2999 90.4266 C 32.0859 88.0856 31.2869 85.9707 29.5539 84.3596 C 28.9369 83.7866 28.0559 83.1146 27.0349 83.7686 C 26.0179 84.4186 26.1599 85.3046 26.5999 86.2246 C 27.1019 87.2706 27.6709 88.2896 28.1009 89.3656 C 28.6719 90.7906 29.1289 92.2886 28.3439 93.7706 C 27.0459 96.2186 22.0969 96.0786 21.0039 94.1056 C 20.2539 92.7536 19.2459 91.5236 18.2109 90.3636 C 17.7919 89.8936 17.0149 89.6286 16.3639 89.5386 C 16.1399 89.5076 15.5819 90.2846 15.5589 90.7126 C 15.4749 92.2826 15.4649 93.9086 16.3999 95.2716 C 18.2459 97.9616 20.6909 99.7276 24.1209 99.8996 Z M 114.5688 100.6247 C 115.0888 100.4247 116.0928 100.1437 116.9869 99.6586 C 118.0548 99.0827 117.9278 97.9746 116.9889 97.2507 C 116.0989 96.5636 115.1458 97.0207 114.2489 96.8057 C 112.7719 96.4507 110.9929 96.3877 109.8918 95.1987 C 109.6239 94.9097 109.4328 94.5617 109.1738 94.2937 C 108.9328 94.0447 108.7358 93.9137 108.5888 93.5737 C 108.3338 92.9837 108.3428 92.3147 108.2188 91.6937 C 107.9738 90.4637 108.4948 89.2327 108.9888 88.1007 C 109.4768 86.9787 110.2448 85.9787 110.7458 84.8617 C 111.1968 83.8557 110.6588 83.1387 109.6048 83.4257 C 108.7148 83.6667 107.8078 84.2007 107.1478 84.8487 C 105.5128 86.4537 104.8938 88.6257 104.9248 90.7877 C 104.9398 91.9276 105.4468 92.8537 105.7808 93.9037 C 106.2008 95.2257 106.8218 96.2187 107.6778 97.2977 C 108.1708 97.9197 108.9238 98.4687 109.5378 98.9817 C 110.9418 100.1547 112.7828 100.5357 114.5688 100.6247 Z M 74.7489 108.6586 C 75.8728 108.6626 76.8799 107.9366 77.1009 106.7437 C 77.4389 104.9146 77.7129 103.0686 77.8829 101.2186 C 78.0269 99.6646 76.3569 97.8877 74.9559 98.0396 C 74.0709 98.1346 73.1619 98.3196 72.3479 98.6607 C 71.6659 98.9477 70.9689 99.4117 70.5179 99.9856 C 69.3839 101.4287 69.1499 103.0837 69.8119 104.8306 C 70.5729 106.8306 72.6259 108.9047 74.7489 108.6586 Z M 59.4269 93.3846 C 58.0949 92.2276 57.1798 92.8056 56.2098 93.7296 C 54.7938 95.0837 53.2548 96.3087 51.8238 97.6487 C 51.5828 97.8726 51.4228 98.4957 51.5639 98.7546 C 52.0748 99.6957 52.7288 100.5607 53.4068 101.5707 C 54.7578 100.4076 56.1428 99.5357 57.0858 98.3227 C 58.2168 96.8657 60.2938 95.7066 59.4269 93.3847 Z M 54.3709 136.5146 C 54.4269 136.4036 56.8319 136.9346 57.1099 136.9766 C 57.5499 137.0416 58.7439 137.4166 59.1009 137.0326 C 59.3669 136.7466 59.2019 136.0366 59.2019 135.6897 C 59.2039 135.0326 59.3209 134.3726 59.4149 133.7197 C 59.5829 132.5506 59.7179 131.3726 59.9299 130.2097 C 60.1879 128.7977 60.0789 128.5737 58.6209 128.1447 C 57.2339 130.8747 55.8409 133.6167 54.3709 136.5147 Z M 57.0249 127.4616 C 55.6689 125.8666 55.3479 125.9856 54.4389 127.6756 C 53.6659 129.1127 52.5858 130.3816 51.6719 131.7437 C 51.1629 132.5026 50.7799 133.2877 50.3418 134.0557 C 50.0208 134.6167 49.2828 135.1697 50.2058 135.6097 C 50.5049 135.7527 51.1138 135.8327 51.4469 135.8177 C 52.1069 135.7867 52.7169 135.1897 53.0239 134.6707 C 53.5808 133.7297 54.0739 132.7457 54.6039 131.7887 C 55.3959 130.3557 56.2009 128.9317 57.0249 127.4617 Z M 61.1549 135.5276 C 61.1099 136.4966 61.1719 137.3836 61.5539 137.5477 C 61.9389 137.7126 62.6818 137.5696 63.1108 137.5696 C 63.4498 137.5696 64.3638 137.7426 64.6529 137.5717 C 65.1369 137.2836 64.7888 135.5897 64.6949 135.1737 C 64.4469 134.0597 64.1628 132.9527 63.9059 131.8407 C 63.7679 131.2457 63.6819 129.0667 62.9969 128.8087 C 62.8499 128.7536 62.0239 128.7437 61.9459 128.8037 C 61.6419 129.0417 61.6579 129.9177 61.6189 130.2497 C 61.5159 131.1257 61.4599 132.0077 61.4059 132.8877 C 61.3799 133.3136 61.2039 134.4697 61.1549 135.5276 Z M 44.1278 104.2986 C 44.1928 104.3546 44.2768 104.3976 44.3878 104.4306 C 45.7208 104.8176 47.2018 104.4226 48.4448 103.9116 C 49.2798 103.5686 51.4368 102.8576 50.6768 101.6686 C 50.2128 100.9426 49.9918 100.1276 49.5838 99.3996 C 49.2208 98.7506 48.2748 99.4136 47.6598 99.6386 C 47.0878 99.8496 46.6358 100.1196 46.0448 100.2606 C 45.3558 100.4246 43.9468 100.4517 43.6818 101.1286 C 43.4268 101.7816 43.6338 103.0076 43.8128 103.6007 C 43.9068 103.9136 43.9478 104.1487 44.1278 104.2987 Z M 103.2869 93.3166 C 101.6299 94.1336 99.9739 94.9506 98.3168 95.7676 C 97.5999 96.1226 97.2439 96.2326 97.3888 97.0776 C 97.5438 97.9786 97.7718 98.8516 97.8198 99.7686 C 98.5778 99.6356 99.4068 99.1656 100.1568 98.9246 C 101.0238 98.6446 101.9078 98.2646 102.7438 97.8666 C 103.3458 97.5796 103.8498 97.3387 104.3818 96.9566 C 104.9958 96.5166 104.6788 96.2046 104.3878 95.6607 C 103.9818 94.9036 103.6528 94.0936 103.2868 93.3167 Z M 42.4978 104.6266 C 42.4289 103.9606 42.2619 103.2876 42.1388 102.6276 C 42.0879 102.3516 42.0408 101.2786 41.8188 101.1316 C 41.7659 101.0966 41.0769 101.2596 40.9279 101.2726 C 40.2669 101.3346 39.5808 101.3496 38.9078 101.3256 C 38.2698 101.3026 37.6189 101.2426 37.0119 101.0986 C 36.5199 100.9816 35.5688 100.5426 35.2708 101.2576 C 34.9819 101.9516 34.7659 102.6736 34.5358 103.3896 C 34.3608 103.9376 34.2728 104.0456 34.8538 104.2486 C 35.2818 104.3976 35.7508 104.4236 36.1959 104.4926 C 36.9779 104.6166 37.7519 104.7896 38.5529 104.8296 C 39.9169 104.8976 41.1649 104.8806 42.4978 104.6266 Z M 79.6338 93.7336 C 79.5738 93.7116 79.5129 93.6896 79.4509 93.6686 C 79.1778 94.4616 79.5179 95.5846 79.5509 96.4186 C 79.5688 96.8906 79.3859 97.5806 79.7009 97.9876 C 79.9708 98.3376 81.0408 98.6676 81.4588 98.7336 C 81.8918 98.8006 82.5078 99.0486 82.9368 98.8676 C 83.3438 98.6946 83.4579 98.1936 83.6268 97.8146 C 83.6959 97.6606 84.5349 95.6676 84.5999 95.6936 C 82.9499 95.0506 81.2969 94.3256 79.6338 93.7336 Z M 86.7409 96.2317 C 86.5899 96.2476 85.4999 98.6957 85.4069 98.9517 C 85.0189 100.0257 85.9409 100.0466 86.7869 100.2666 C 87.5819 100.4746 88.8009 100.9326 89.6028 100.5767 C 90.1959 100.3136 89.9869 99.5117 89.9869 98.9076 C 89.9869 98.2006 90.0188 97.4806 89.9789 96.7776 C 88.9099 96.3997 87.8089 96.7336 86.7409 96.2317 Z M 33.7888 100.1776 C 33.8809 100.0127 33.9459 99.9096 33.9598 99.9216 C 33.6478 99.6396 33.1478 99.5307 32.7858 99.3136 C 32.3748 99.0686 32.0008 98.7606 31.5348 98.6197 C 30.8068 98.3997 30.3068 99.0647 29.8218 99.5286 C 29.3188 100.0096 28.9148 100.7056 29.1498 101.3606 C 29.3188 101.8327 29.6048 101.9866 30.0508 102.2476 C 30.5258 102.5256 31.0198 102.7126 31.5328 102.9146 C 31.7648 103.0046 32.2358 103.3946 32.4728 103.2396 C 32.6498 103.1226 32.7708 102.2756 32.8518 102.0556 C 32.9058 101.9096 33.4908 100.7116 33.7888 100.1776 Z M 94.0149 100.6247 C 93.3209 100.6497 92.5909 100.6567 91.9009 100.6157 C 91.6809 100.1887 91.6469 99.7187 91.6419 99.2187 C 91.6339 98.5517 91.5679 97.5777 91.8099 96.9767 C 92.3259 96.9567 92.8449 96.9877 93.3489 96.9217 C 93.7589 96.8677 95.1629 96.4797 95.4299 96.6337 C 95.8579 96.8807 95.9179 98.2357 96.0069 98.6737 C 96.1059 99.1527 96.2379 100.0067 95.8039 100.3676 C 95.4009 100.7046 94.4979 100.6067 94.0149 100.6247 Z " data-paper-data="{&quot;origPos&quot;:null}" id="Shape" fill="#30419a" stroke-width="1" stroke="none"/><path d="M 94.6868 65.1633 C 94.7548 66.2883 94.7278 67.4213 94.9038 68.5463 C 95.3428 71.3603 95.3178 74.2673 95.6298 77.1063 C 95.7338 78.0453 95.4258 78.4673 94.7028 78.7283 C 93.5458 79.1443 92.3638 79.4953 91.1868 79.8563 C 87.7218 80.9183 84.2668 82.0143 80.7838 83.0133 C 77.0978 84.0693 73.3838 85.0273 69.6838 86.0313 C 69.0188 86.2113 68.3648 86.4333 67.6938 86.5843 C 66.9108 86.7603 66.3678 86.1243 66.3568 85.2683 C 66.3388 83.7973 66.2558 82.3243 66.1368 80.8573 C 65.8778 77.7153 65.8468 74.5793 66.2578 71.4493 C 66.3998 70.3673 67.1238 69.7543 68.1088 69.4903 C 71.4298 68.6023 74.7668 67.7773 78.0868 66.8873 C 80.4218 66.2613 82.7268 65.5223 85.0668 64.9133 C 87.5998 64.2553 90.1508 63.6673 92.7038 63.0943 C 93.9608 62.8113 94.5108 63.2823 94.6388 64.5543 C 94.6588 64.7563 94.6738 64.9593 94.6868 65.1633 Z M 68.5139 84.2023 C 68.5259 84.2063 68.5409 84.2023 68.5569 84.1863 C 68.8469 83.9013 69.5259 83.9533 69.9319 83.9153 C 70.3279 83.8783 71.5329 83.8573 71.7309 83.5273 C 71.8399 83.3483 71.7389 82.5833 71.7289 82.3633 C 71.7119 81.9323 71.6009 81.5013 71.5739 81.0663 C 71.5099 80.0003 71.2859 79.0043 71.1919 77.9623 C 70.9779 75.5743 70.7869 73.1843 70.5769 70.7023 C 69.9918 70.8393 69.5959 70.9253 69.2029 71.0273 C 68.4159 71.2343 67.9079 71.5713 68.0249 72.5653 C 68.1479 73.5853 68.0159 74.6323 68.0589 75.6643 C 68.1239 77.2223 68.1979 78.7813 68.2749 80.3393 C 68.3149 81.1513 68.4039 81.9763 68.3969 82.7893 C 68.3979 82.8373 68.3619 84.1503 68.5139 84.2023 Z M 79.7699 68.6313 C 79.6929 68.5063 79.5489 68.4893 79.2119 68.5033 C 78.6799 68.5253 78.1519 68.6643 77.6449 68.8183 C 77.0989 68.9843 77.1429 69.2873 77.1449 69.8083 C 77.1479 71.2343 77.0659 72.6513 77.2269 74.0733 C 77.3759 75.3943 77.2399 76.6753 77.2949 77.9973 C 77.3259 78.7233 77.4049 79.4473 77.4399 80.1743 C 77.4569 80.5403 77.4059 81.1363 77.6259 81.4603 C 78.0659 82.1073 79.1899 81.5133 79.7499 81.3243 C 79.7839 81.3123 79.8139 81.2643 79.8449 81.2653 C 80.7309 81.2963 80.7559 80.7273 80.7179 80.0683 C 80.5729 77.5893 80.4789 75.1063 80.3009 72.6293 C 80.2179 71.4653 80.0469 70.3093 79.8859 69.1543 C 79.8489 68.8913 79.8309 68.7283 79.7699 68.6313 Z M 83.0179 79.9723 C 83.2269 80.1873 83.4898 80.0583 83.8809 79.9323 C 84.0788 79.8683 85.4318 79.5563 85.4639 79.3623 C 85.6459 78.2463 85.4319 77.1153 85.3699 75.9993 C 85.3439 75.5343 85.3139 75.1223 85.2229 74.6613 C 84.9579 73.3223 85.0609 71.9503 84.8999 70.6003 C 84.7799 69.5863 84.9069 68.3373 84.4729 67.3983 C 84.1839 67.4653 81.4949 67.7703 81.5249 68.0753 C 81.8209 70.7303 82.1159 73.3853 82.4119 76.0413 C 82.5339 77.1363 82.4229 78.6893 82.8539 79.7053 C 82.9059 79.8263 82.9599 79.9133 83.0179 79.9723 Z M 92.6779 65.3213 C 92.2249 65.4283 91.9099 65.5193 91.5869 65.5783 C 89.6369 65.9373 89.7009 65.9283 89.9009 67.9763 C 90.1029 70.0483 90.1319 72.1353 90.2909 74.2133 C 90.3869 75.4633 90.5859 76.7063 90.7449 77.9983 C 90.7339 77.9173 93.6929 77.3463 93.9489 77.3093 C 93.9559 76.1083 93.7799 74.9653 93.5819 73.7783 C 93.4409 72.9243 93.4069 72.0573 93.3099 71.2003 C 93.0909 69.2473 92.9999 67.2613 92.6779 65.3213 Z M 75.5038 69.9943 C 75.4788 69.7803 75.4349 69.5843 75.3648 69.4233 C 74.6988 69.5783 74.0718 69.8763 73.4008 70.0213 C 72.7968 70.1513 72.2468 70.1063 72.3739 70.9213 C 72.7418 73.2833 72.8948 75.6483 73.2178 78.0133 C 73.4039 79.3733 73.2839 80.7443 73.4209 82.1113 C 73.5088 82.9913 73.4658 83.0113 74.2839 82.8383 C 74.7178 82.7473 75.1878 82.6763 75.5819 82.5173 C 75.6998 81.3773 75.5399 80.0843 75.5339 78.9233 C 75.5258 77.6013 75.5099 76.2793 75.5018 74.9573 C 75.4968 73.9523 75.4978 72.9473 75.4989 71.9423 C 75.4999 71.4153 75.5798 70.6263 75.5038 69.9943 Z M 88.4728 78.7043 C 88.6178 78.6273 88.7439 78.5333 88.8318 78.4183 C 89.1018 78.0643 88.9318 77.7573 88.8768 77.3833 C 88.7948 76.8313 88.8298 76.2673 88.7598 75.7133 C 88.5638 74.1673 88.4138 72.6123 88.3208 71.0573 C 88.2858 70.4653 88.2888 69.8643 88.2328 69.2763 C 88.1848 68.7743 88.2378 68.2483 88.1618 67.7523 C 88.0938 67.3093 87.9758 66.6943 87.4968 66.5333 C 86.9878 66.3613 86.4848 66.8013 85.9808 66.8133 C 85.8648 67.7963 86.3538 69.0293 86.4538 70.0283 C 86.6038 71.5333 86.7598 73.0373 86.9168 74.5413 C 86.9988 75.3173 87.0798 76.0933 87.1598 76.8693 C 87.2318 77.5503 87.1868 78.4403 87.4338 79.0663 C 87.7278 78.9753 88.1478 78.8793 88.4728 78.7043 Z " id="Shape" fill="#30419a" stroke-width="1" stroke="none"/><path d="M 79.5099 54.7663 C 79.4399 55.3803 79.2619 56.0093 79.0129 56.6573 C 78.5829 57.7783 78.0559 58.5273 77.3019 59.4223 C 76.9248 59.8703 76.6808 60.1053 76.1878 60.4233 C 72.9788 62.4973 68.6378 63.6343 64.8159 62.9763 C 62.8769 62.6413 61.1479 60.6383 60.8999 58.5603 C 60.7369 57.2003 60.6519 55.8103 61.3779 54.4123 C 62.1479 52.9253 63.3929 52.0233 64.6859 51.3403 C 67.5539 49.8223 70.7229 49.2033 73.9749 49.3513 C 75.6609 49.4273 77.3668 50.1363 78.4769 51.4293 C 79.3879 52.4913 79.6449 53.5983 79.5099 54.7663 Z M 70.7099 51.8593 C 70.4459 51.8193 70.3119 51.7903 70.1759 51.7793 C 68.4039 51.6343 66.9509 52.4923 65.3949 53.1563 C 63.1059 54.1333 62.4859 56.4603 62.8779 58.4313 C 63.1149 59.6173 63.8569 60.7383 65.0249 60.9923 C 67.2899 61.4863 69.5249 60.9763 71.8349 60.2113 C 69.6159 57.6023 68.4459 54.9683 70.7099 51.8593 Z " id="Shape" fill="#30419a" stroke-width="1" stroke="none"/><path d="M 86.7699 57.6323 C 83.4669 57.9983 81.7459 55.4713 81.5489 53.5293 C 81.4289 52.3403 81.6119 50.9713 82.5738 49.8613 C 84.2828 47.8893 86.4869 46.8223 88.8818 46.0423 C 90.7088 45.4463 92.5779 44.9613 94.5159 45.2373 C 95.9819 45.4463 97.3068 46.2073 97.9538 47.6013 C 98.7319 49.2773 98.4368 51.0483 97.5918 52.6443 C 96.6408 54.4413 94.9628 55.4603 93.1288 56.1953 C 90.9778 57.0553 88.8018 57.8573 86.7698 57.6323 Z M 89.5819 55.3483 C 89.8569 55.2403 90.1279 55.0903 90.3979 54.8803 C 89.9499 54.6843 89.6078 54.6383 89.1839 54.2763 C 87.8628 53.1493 87.5899 51.3263 88.1119 49.6973 C 88.2518 49.2583 88.4608 48.8353 88.7588 48.4813 C 88.9749 48.2243 89.5618 47.9543 89.5098 47.6133 C 88.4148 47.7453 87.2948 48.5313 86.3588 49.0753 C 84.8448 49.9543 83.3238 51.7333 83.8858 53.5903 C 84.2998 54.9583 85.1168 55.5993 86.7298 55.5993 C 87.7748 55.6003 88.6998 55.6933 89.5818 55.3483 Z " id="Shape" fill="#30419a" stroke-width="1" stroke="none"/><path d="M 83.3759 60.7593 C 83.4368 61.4703 82.9929 62.2743 82.0479 62.1503 C 80.6249 61.9623 81.0199 59.6143 82.4989 59.7543 C 83.0409 59.8053 83.3329 60.2593 83.3759 60.7593 Z " id="Shape" fill="#30419a" stroke-width="1" stroke="none"/></g></g></svg>