<svg version="1.1" xmlns="http://www.w3.org/2000/svg" xmlns:xlink="http://www.w3.org/1999/xlink" width="60" height="33.1875" viewBox="0,0,60,33.1875"><g transform="translate(-210,-159.3125)"><g data-paper-data="{&quot;isPaintingLayer&quot;:true}" fill-rule="nonzero" stroke-linejoin="miter" stroke-miterlimit="10" stroke-dasharray="" stroke-dashoffset="0" style="mix-blend-mode: normal"><path d="M222.5,180h35" fill="none" stroke="#fa3737" stroke-width="25" stroke-linecap="round"/><path d="M257.5,170.8125c0,-5.2467 -3.58172,-9.5 -8,-9.5c-4.41828,0 -8,4.2533 -8,9.5c0,5.2467 3.58172,9.5 8,9.5c4.41828,0 8,-4.2533 8,-9.5z" fill="#ffffff" stroke="#000000" stroke-width="2" stroke-linecap="butt"/><path d="M250.5,173.8125c0,-3.03757 -2.01472,-5.5 -4.5,-5.5c-2.48528,0 -4.5,2.46243 -4.5,5.5c0,3.03757 2.01472,5.5 4.5,5.5c2.48528,0 4.5,-2.46243 4.5,-5.5z" fill="#000000" stroke="#000000" stroke-width="2" stroke-linecap="butt"/><path d="M222.5,170.8125c0,-5.79899 4.25329,-10.5 9.5,-10.5c5.24671,0 9.5,4.70101 9.5,10.5c0,5.79899 -4.25329,10.5 -9.5,10.5c-5.24671,0 -9.5,-4.70101 -9.5,-10.5z" fill="#ffffff" stroke="#000000" stroke-width="2" stroke-linecap="butt"/><path d="M228.5,173.8125c0,-3.58985 2.68629,-6.5 6,-6.5c3.31371,0 6,2.91015 6,6.5c0,3.58985 -2.68629,6.5 -6,6.5c-3.31371,0 -6,-2.91015 -6,-6.5z" fill="#000000" stroke="#000000" stroke-width="2" stroke-linecap="butt"/></g></g></svg>