<svg version="1.1" xmlns="http://www.w3.org/2000/svg" xmlns:xlink="http://www.w3.org/1999/xlink" width="167.00492" height="142.67339" viewBox="0,0,167.00492,142.67339"><g transform="translate(-156.99509,-122.81251)"><g data-paper-data="{&quot;isPaintingLayer&quot;:true}" fill-rule="nonzero" stroke="none" stroke-width="0.5" stroke-linecap="butt" stroke-linejoin="miter" stroke-miterlimit="10" stroke-dasharray="" stroke-dashoffset="0" style="mix-blend-mode: normal"><path d="M170.00559,185.27532c-1.74989,-1.83899 -3.44434,-3.71675 -5.08219,-5.71887l-3.25903,-3.54675c-0.41236,-0.44578 -0.66437,-1.04206 -0.66437,-1.6972c0,-1.38071 1.11929,-2.5 2.5,-2.5h3v0.30804c1.65959,-0.25439 3.33316,-0.3797 5,-0.30804c1.2337,0.05303 2.61643,0.99108 3.68567,0.37338c0.98514,-0.56913 0.88249,-2.10279 1.19933,-3.19549c0.68316,-2.35607 1.20559,-4.75886 1.66368,-7.16882c0.60987,-3.20842 1.53348,-6.36448 1.9229,-9.60704c0.63922,-5.32257 -0.69285,-10.90081 0.04716,-16.20748c0.31149,-2.23374 0.99695,-4.43923 0.98127,-6.69454v-4v0c0,-1.38071 1.11929,-2.5 2.5,-2.5c0.62635,0 1.1989,0.23034 1.63756,0.61093l3.7857,3.24489c1.00711,0.6957 2.01994,1.54992 3.33546,2.86742c3.57756,3.58292 6.30512,7.32759 10.26158,10.55061c2.0781,1.69287 3.88586,3.79159 6.24249,5.06854c1.44589,0.78346 3.14647,1.02521 4.58403,1.82385c3.2844,1.82465 6.77359,5.02865 9.73814,7.40042c3.29912,2.63943 6.68707,5.15294 10.06608,7.75624c0.93062,0.71698 2.93057,2.71849 4.5043,2.68195c6.4613,-0.15003 9.96601,-5.15021 14.07568,-9.2714c1.53177,-1.53177 3.45355,-2.73686 4.64235,-4.54776c0.57847,-0.88118 0.40362,-2.13083 1,-3c0.95496,-1.39176 2.14903,-2.66531 3.54165,-3.61902c1.61292,-1.10458 3.53116,-3.22767 5.3265,-2.45414c2.19261,0.94469 2.55853,4.05606 3.49183,6.25353c2.36879,5.57736 2.00665,11.6309 4.11411,17.27407c0.56419,1.51073 1.22806,2.98287 1.7963,4.49208c0.17517,0.46524 0.00553,1.17257 0.43243,1.4273c4.72265,2.81795 10.21002,-3.09874 14.88558,-0.08759c2.02576,1.30463 2.54941,6.97281 1.84793,8.98481c-0.57885,1.66026 -2.31242,2.76712 -2.84198,4.44375c-0.18065,4.51709 5.6378,8.15937 8.15401,11.61344c0.75657,1.03857 1.23587,2.29199 2.13629,3.20865c1.88464,1.91862 4.44626,3.13257 6.17534,5.19249c2.30543,2.74656 3.70184,6.25247 6,9c1.95689,2.33954 4.03354,4.57847 5.95528,6.94697c0.75873,0.93511 1.94898,1.57349 2.42106,2.6813c0.35813,0.84039 0.06194,1.81438 0.00804,2.73891l2.45003,2.45004c0.45241,0.45241 0.73224,1.07741 0.73224,1.76776c0,1.38071 -1.11929,2.5 -2.5,2.5h-4v-0.38554c-9.83414,1.26915 -20.14934,0.38554 -30,0.38554c-2.99978,0 -6.00027,0.01729 -9,0c-1.70938,-0.00985 -3.13589,-0.31978 -4.68567,0.62662c-1.08983,0.66553 -2.78632,3.58587 -3.2342,4.26013c-2.63389,3.96507 -4.20673,6.65505 -5.25389,11.34118c-0.85102,3.8084 -2.37948,6.84991 -2.35852,10.67253c-1.53578,3.54301 -1.66585,7.65632 -7.58575,4.83561c-0.16887,-0.08047 -6.48323,-7.9703 -6.97652,-8.6026c-4.93206,-6.32197 -9.07494,-12.32758 -12.21515,-19.67676c-0.02882,-0.06744 -2.00578,-5.99067 -2.06201,-6.16614c-0.38907,-1.2141 -0.33736,-3.21857 -1.585,-3.48087c-5.59871,-1.17706 -11.32891,1.62629 -16.7705,2.17537c-6.02651,0.6081 -11.74206,-0.57174 -17.66645,0.94028c-2.62049,0.64336 -5.37228,0.55285 -8.03196,1.00777c-2.01323,0.34434 -4.09483,2.67005 -5.88871,1.6935c-1.65299,-0.89986 -1.14128,-3.64507 -1.15339,-5.52708c-0.02298,-3.57015 3.23424,-6.93953 4.0346,-10.17392c0.30636,-1.23807 -0.33901,-2.58752 -0.0346,-3.82608c0.1491,-0.60666 1.84098,-1.02305 1.30545,-1.34473c-0.90636,-0.54442 -2.10817,0.29043 -3.16366,0.22856c-1.64081,-0.09619 -3.25388,-0.46709 -4.8809,-0.70015c-5.45671,-0.78163 -10.87789,-1.32474 -16.19362,-2.3155c-3.3151,-0.61788 -7.27808,1.15035 -7.09859,-5.53709c0.0933,-3.47609 3.71316,-5.1986 5.56569,-7.5156c1.26375,-1.58059 2.3448,-3.33004 3.80673,-4.72936c0.86371,-2.59113 2.03072,-4.07188 3.63222,-5.72285z" fill="#fa3737"/><path d="M210.38411,192.65407c-0.02053,-0.03614 -0.04041,-0.07274 -0.05961,-0.10982c-0.59608,-1.15143 -0.1486,-2.71297 -0.86804,-3.79163c-0.65023,-0.9749 -2.44845,-0.86036 -2.94323,-1.92264c-0.88294,-1.89567 -2.36158,-4.7736 -0.84754,-6.21611c1.67071,-1.59178 4.71874,-0.28602 6.90873,0.44128c2.55556,0.84871 3.92203,3.76007 6.2399,5.13072c0.85748,0.50706 1.98101,0.41793 2.84594,0.91218c3.70737,2.11849 3.63757,3.49895 7.41412,4.78133c0.731,0.24822 1.68124,0.64835 2.30758,0.19705c1.18129,-0.85114 1.37067,-2.63628 2.44369,-3.62042c1.28824,-1.18154 3.05513,-1.71358 4.47844,-2.72835c2.35377,-1.67816 4.38943,-4.14421 6.42814,-6.18292l3,-3c0.45241,-0.45241 1.07741,-0.73223 1.76777,-0.73223c1.38071,0 2.5,1.11929 2.5,2.5v3h-0.06736c0.01501,0.13295 0.02683,0.26642 0.03508,0.40046c0.0466,0.75661 -1.18345,1.28188 -1.0346,2.02516c0.14271,0.71259 1.01963,1.12698 1.71083,1.35146c4.02259,1.30644 8.52387,1.5058 12.63994,2.849l0.00596,0.00438l0.00072,-0.00217l2.94531,0.98177c1.02156,0.31417 1.76412,1.26534 1.76412,2.38994c0,1.18975 -0.83109,2.18539 -1.9444,2.43804l-3.94927,0.98732l-0.0864,-0.34558c-0.55025,0.22727 -1.10541,0.44077 -1.6657,0.63775c1.95753,0.95315 3.20223,2.6448 5.46009,4.15585c0.82789,0.55406 1.98207,0.41607 2.84594,0.91218c0.30626,0.17588 7.6624,5.70725 8.26986,6.16324l2.92436,1.94957c0.68925,0.44514 1.14551,1.2201 1.14551,2.10163c0,1.38071 -1.11929,2.5 -2.5,2.5h-4v-0.31149c-3.77095,0.64927 -7.65395,0.88345 -11.40046,0.27921c-2.00172,-0.32284 -4,-0.66667 -6,-1c-1.03975,-0.17329 -2.01098,-0.63537 -3,-1c-0.36647,-0.13511 -0.85798,-0.83086 -1.06101,-0.49721c-0.87152,1.43222 -0.04405,3.35295 -0.03853,5.02949c0.0117,3.55746 0.3633,7.49088 0,11c-0.17624,1.70229 0.44308,4.17102 -1.03822,5.02811c-1.73324,1.00286 -4.216,0.046 -5.92355,-1c-1.77385,-1.08661 -2.8287,-3.11183 -3.79557,-4.95368c-0.5306,-1.01078 0.10919,-2.46344 -0.57696,-3.37581c-0.476,-0.63293 -1.63248,-0.10174 -2.32596,-0.48418c-1.4319,-0.78966 -2.45507,-2.21889 -3.91416,-2.9571c-1.10778,-0.56047 -2.41636,-0.57136 -3.62454,-0.85704c-1.90409,-0.6335 -3.71427,-1.65361 -5.70149,-1.93258c-3.27265,-0.45943 -7.29845,0.03228 -10.59954,0.03228c-1.29863,0 -7.54779,0.03836 -7.95671,-0.1903c-1.67702,-0.93778 -3.46767,-2.63568 -3.53112,-4.55604c-0.05451,-1.6496 4.1823,-2.48706 3.17813,-3.79695c-2.73894,-3.57282 -5.7373,-1.49119 -9.41476,-2.56398c-1.32123,-0.38543 -2.33062,-1.46236 -3.49067,-2.20521l-3.85446,-1.92723c-0.84561,-0.40086 -1.43041,-1.26228 -1.43041,-2.26029c0,-1.1246 0.74256,-2.07576 1.76412,-2.38994l2.94531,-0.98177l0.01709,0.05128c0.12267,-0.05246 0.24695,-0.10168 0.37302,-0.14729c1.25377,-0.45369 2.67939,0.18378 4,0c2.43493,-0.33885 4.6613,-1.66593 7.095,-2.01355c1.05652,-0.15091 2.1213,-0.18825 3.18957,-0.17716z" fill="#fad62f"/></g></g></svg>