<svg version="1.1" xmlns="http://www.w3.org/2000/svg" xmlns:xlink="http://www.w3.org/1999/xlink" width="512.72501" height="365.99994" viewBox="0,0,512.72501,365.99994"><g transform="translate(1.64999,2.44996)"><g data-paper-data="{&quot;isPaintingLayer&quot;:true}" fill-rule="nonzero" stroke-linecap="butt" stroke-linejoin="miter" stroke-miterlimit="10" stroke-dasharray="" stroke-dashoffset="0" style="mix-blend-mode: normal"><path d="M57.06491,3.80005h419.53509v352h-5" fill="none" stroke="#000000" stroke-width="12.5"/><path d="M426.74679,355.80005h-422.14678v-352h6" fill="none" stroke="#000000" stroke-width="12.5"/><path d="M428.35001,314.80003c-0.01634,2.22775 -0.76426,4.39107 -1.04842,6.60068c-0.19084,1.48395 0.25838,6.13054 0.02033,7.8575c-0.18768,1.36149 -0.79803,2.64055 -1,4c-0.72924,4.90848 0.0281,10.55455 0.0281,15.54181c0,0 0,3.75 -3.75,3.75c-3.75,0 -3.75,-3.75 -3.75,-3.75c0,-5.32994 -0.69763,-11.19353 0.0281,-16.45819c0.18768,-1.36149 0.79803,-2.64055 1,-4c0.39886,-2.68471 -0.3081,-5.44827 0.02033,-8.1425c0.12755,-1.04635 0.81705,-1.96191 1,-3c0.45165,-2.56269 -0.04842,-5.79288 -0.04842,-8.39932c0,-1.5648 0.10346,-3.13484 0.14446,-4.70146c0.05271,0.00147 0.08053,0.00147 0.08053,0.00147h2c1.03087,0 2.02873,-0.15211 3,-0.42063v0.42063h2.50602c0.03424,3.57061 -0.20558,7.23024 -0.23103,10.70001z" fill="#000000" stroke="none" stroke-width="0.5"/><path d="M430.82502,151.1c0,3.75 -3.75,3.75 -3.75,3.75h-1c-6.11444,0 -11.98783,0.39609 -17.9625,-1.12563c-1.25756,-0.32029 -2.52233,-0.67941 -3.68506,-1.25569c-0.90176,-0.44693 -1.47577,-1.48825 -2.43912,-1.77959c-0.93094,-0.28154 -1.94088,0.14335 -2.91331,0.1609c-3.94396,0.0712 -7.89706,0.02995 -11.84572,0.00945c0.25284,1.42445 0.80724,2.74467 1.59486,3.8923c0.75536,3.19438 0.96412,6.57246 0.99683,9.78441c0.07751,-0.02927 0.15499,-0.05883 0.23246,-0.08866c0.04209,0.9685 0.12575,1.93378 0.26846,2.89435c0.20197,1.35945 0.83417,2.63567 1,4c0.27582,2.26914 -0.41707,4.60635 -0.02033,6.8575c0.47295,2.68356 1.29913,5.2935 1.8167,7.96422c-0.02863,0.3083 -0.04327,0.62066 -0.04327,0.93643c0,1.03076 0.15595,2.0251 0.44555,2.96071c0.02961,2.10541 -0.15413,4.31227 -0.19866,6.28113c-0.01363,0.60248 -0.49638,1.38041 -0.07025,1.80654c0.42613,0.42613 1.20406,-0.05663 1.80654,-0.07025c0.84711,-0.01916 1.69449,-0.0309 2.54181,-0.0281c1.51805,0.00502 2.87948,0.23513 4.22213,0.47364c2.53991,1.20563 5.5854,1.13075 8.54663,0.52636c9.07708,0 18.15416,0 27.23124,0c3.34296,0 8.04339,0.82454 11.29085,0.06766c1.7482,-0.40745 3.25681,-1.57162 5,-2c1.08117,-0.26569 2.23501,0.08959 3.33964,-0.04941c5.91339,-0.74411 11.38363,-1.01825 17.36952,-1.01825c0,0 3.75,0 3.75,3.75c0,3.75 -3.75,3.75 -3.75,3.75c-5.75822,0 -10.94907,0.27673 -16.63048,0.98175c-0.88019,0.10922 -1.80085,-0.26827 -2.66036,-0.04941c-1.73955,0.44295 -3.24432,1.62611 -5,2c-3.7774,0.80444 -8.82797,0.06766 -12.70915,0.06766c-10.33333,0 -20.66667,0 -31,0c-2.22761,-0.02996 -4.40669,-0.66175 -6.60068,-1.04842c-1.92288,-0.33889 -3.94956,0.43513 -5.8575,0.02033c-2.12708,-0.46245 -4.65425,-0.53104 -6.19346,-2.07025c-3.98915,-3.98915 -1.22774,-10.38579 -2.04993,-15.05097c-0.5339,-3.02937 -1.51792,-5.96491 -2,-9c-0.37348,-2.35137 0.28397,-4.78118 -0.02033,-7.1425c-0.17566,-1.3631 -0.81232,-2.63851 -1,-4c-0.06583,-0.47753 -0.1175,-0.95659 -0.15716,-1.43693c-0.39595,-0.88356 -0.39595,-1.72129 -0.39595,-1.72129c0.02188,-4.35357 -1.3681,-7.94358 -1.90864,-12.1773c-0.33117,-2.59382 -1.83558,-5.57396 -0.51015,-7.82801c1.23026,-2.09221 4.3358,-2.62393 7.18794,-2.73998c-0.01266,0.24204 -0.01916,0.49042 -0.01916,0.74529c0,0.08167 0.00067,0.16268 0.00199,0.24303c3.99931,-0.01625 8.0017,-0.05103 11.99801,0.00697c1.69623,0.02462 3.45116,-0.28948 5.08669,0.1609c2.11507,0.58244 3.74431,2.44566 5.87581,2.96472c5.30725,1.29243 10.60297,0.87437 16.0375,0.87437h1c0,0 3.75,0 3.75,3.75z" fill="#000000" stroke="none" stroke-width="0.5"/><path d="M477.35001,69.80003c0,3.75 -3.75,3.75 -3.75,3.75c-5,0 -11,0 -16,0c-2.60643,0 -5.83663,-0.50007 -8.39932,-0.04842c-2.51873,0.4439 -5.04327,1.02151 -7.60068,1.04842c-7,0 -14,0 -21,0c-2.79982,0 -5.62237,-0.40555 -8.39932,-0.04842c-1.04548,0.13445 -1.95579,0.85596 -3,1c-3.33298,0.45974 -7.20975,0.04842 -10.60068,0.04842c-6.66667,0 -13.33333,0 -20,0c0,0 -3.75,0 -3.75,-3.75c0,-3.75 3.75,-3.75 3.75,-3.75c6.66667,0 13.33333,0 20,0c2.95759,0 6.49119,0.48086 9.39932,0.04842c1.04263,-0.15504 1.95365,-0.87245 3,-1c0.49179,-0.05995 8.33454,-0.04842 9.60068,-0.04842c7,0 14,0 21,0c2.15634,0.03072 4.26946,-0.61328 6.39932,-0.95158c3.00062,-0.4766 6.55407,-0.04842 9.60068,-0.04842c5,0 10,0 15,0h1c0,0 3.75,0 3.75,3.75z" fill="#000000" stroke="none" stroke-width="0.5"/><path d="M368.88917,354.6576c-3.55756,-1.18586 -2.3717,-4.74341 -2.3717,-4.74341l0.85598,-2.41483c0,-2.02759 0.64808,-4.00318 1,-6c0.39675,-2.25115 -0.29614,-4.58836 -0.02033,-6.85751c0.16584,-1.36433 0.79803,-2.64056 1,-4c0.29391,-1.97829 -0.28278,-4.0201 0,-6c0.34984,-2.44939 1.67032,-4.69313 2.02033,-7.14249c0.52558,-3.67809 0.66479,-8.7814 -0.04147,-12.94932c-2.62392,0 -5.21433,0 -7.73197,0c-4.66667,0 -9.33333,0 -14,0c-1.79984,0 -3.62679,-0.36081 -5.39932,-0.04842c-1.03809,0.18295 -1.95579,0.85596 -3,1c-2.97186,0.40993 -6.0245,-0.38266 -9,0c-1.04548,0.13445 -1.95365,0.87245 -3,1c-3.98519,0.48579 -8.17218,-0.49132 -12.1425,0.02033c-1.3631,0.17566 -2.63567,0.83417 -4,1c-9.24077,1.12322 -19.45366,0.04294 -28.76749,0.01532c-2.85067,-0.77111 -6.26797,-0.4414 -8.55202,-2.31332c-2.13468,-1.7495 -0.43807,-5.54123 -0.84025,-7.82322c-0.18295,-1.03809 -0.85596,-1.95579 -1,-3c-0.06245,-0.45277 -0.04842,-7.8323 -0.04842,-8.60068c0,-7.33333 0,-14.66667 0,-22c0,-1.85796 -0.46489,-5.9519 -0.25562,-8.88203c-0.18065,-0.16796 -0.36343,-0.33459 -0.5425,-0.50352c-0.02351,-0.34728 -0.06476,-0.6897 -0.12283,-1.02636l0.21703,-0.21703c1.14515,-1.27125 2.54666,-2.35173 3.43544,-3.81375c0.28044,-0.46131 0.54481,-0.92849 0.79401,-1.40114c0.35973,0.06159 0.72602,0.10396 1.09778,0.12602c0.00456,0.03765 0.00945,0.07506 0.01468,0.11223c0.1033,-0.03809 0.20819,-0.07055 0.31445,-0.09807c0.09056,0.00242 0.18142,0.00365 0.27257,0.00365c0.53961,0 1.06924,-0.04274 1.58569,-0.12502c0.65028,0.03256 1.30881,0.09923 1.9393,0.07503c4.31918,-0.16582 8.67649,0 13,0c1.82714,0.03687 3.58524,-0.73044 5.39932,-0.95158c2.72358,-0.332 5.50986,0.31996 8.23117,-0.03017c1.68578,-0.21689 3.31028,-0.81637 5,-1c5.76037,-0.62602 12.07598,1.03348 17.76883,0.03017c1.03809,-0.18295 1.95896,-0.83465 3,-1c4.54949,-0.72262 9.49136,0.7946 14,0c2.84428,-0.50128 5.71261,-1.03216 8.60068,-1.04842c4.02801,-0.02268 7.56366,0.32698 11.39932,-0.95158c12.86503,-0.1354 25.73495,-0.04842 38.60068,-0.04842c3.88125,0 9.12719,-1.1045 13.05503,0.28299c6.20938,-0.12669 12.9878,-0.89282 19.02067,0.06542c1.04104,0.16536 1.96191,0.81705 3,1c4.09987,0.72257 8.61303,-0.53577 12.76883,-0.03017c4.11735,0.50092 7.48629,0.98175 11.63049,0.98175h1c0,0 3.75,0 3.75,3.75c0,3.75 -3.75,3.75 -3.75,3.75h-1c-4.35531,0 -8.06301,-0.46417 -12.36951,-1.01825c-4.32968,-0.55706 -8.90778,0.65653 -13.23117,-0.03017c-1.04104,-0.16536 -1.96191,-0.81705 -3,-1c-1.77252,-0.31239 -3.59947,0.04843 -5.39932,0.04843c-2.47895,0 -4.9579,0 -7.43686,0c0.0161,0.45779 0.021,0.9339 0.01768,1.41929c-1.47051,-1.26486 -3.57346,-2.16929 -6.58083,-2.16929c-1.00522,0 -1.90939,0.10104 -2.72267,0.28283c-15.25198,0.93263 -30.88491,0.33621 -46.15163,0.11874c-5.67704,1.89235 -11.19631,0.25362 -17,1c-2.20961,0.28416 -4.37292,1.03423 -6.60068,1.04842c-3.25483,0.02074 -7.19448,-0.61324 -10.39932,-0.04842c-1.03809,0.18295 -1.95896,0.83465 -3,1c-5.93799,0.94316 -12.26899,-0.64805 -18.23117,0.03017c-1.68878,0.19211 -3.31277,0.79473 -5,1c-0.75621,0.092 -7.57333,-0.05531 -7.76883,-0.03017c-2.20961,0.28416 -4.37308,1.01847 -6.60068,1.04842c-3.33333,0 -6.66667,0 -10,0c-1,0 -2.00195,0.06241 -3,0c-0.19774,-0.01236 -0.4814,-0.13424 -0.75167,-0.25288c0.00181,0.56822 -0.11901,1.19898 -0.49669,1.79161c0.38527,3.50642 -0.00164,7.25217 -0.00164,10.71128c0,7.33278 0.04799,14.66741 0,22c-0.01411,2.15651 0.61328,4.26946 0.95158,6.39932c0.1883,1.18548 0.28515,2.42392 0.04842,3.60068c-0.06962,0.34609 -1.23985,0.54004 -0.88868,0.57609c1.14803,0.11787 2.29865,-0.20888 3.44798,-0.31332c6.2302,-0.02157 12.46047,-0.01278 18.6907,-0.01278c2.84729,0 5.71788,0.39201 8.54181,0.0281c1.3631,-0.17566 2.63567,-0.83417 4,-1c3.89358,-0.47327 7.98118,0.51883 11.8575,0.02033c1.04548,-0.13445 1.95365,-0.87245 3,-1c2.97796,-0.36301 6.03263,0.44125 9,0c1.04263,-0.15504 1.95896,-0.83465 3,-1c6.52058,-1.0357 14.01176,-0.04842 20.60068,-0.04842c2.74018,0 5.48036,0 8.22054,0c0.29694,-0.19559 0.64992,-0.368 1.0686,-0.50756c3.55756,-1.18586 4.74342,2.37171 4.74342,2.37171c1.81549,5.68946 2.00334,13.77001 1.14401,19.78654c-0.3364,2.35528 -1.64312,4.50225 -1.97967,6.85751c-0.28292,1.97989 0.27312,4.01873 0,6c-0.18768,1.36149 -0.82434,2.63691 -1,4c-0.3043,2.36131 0.35315,4.79113 -0.02033,7.14249c-0.31806,2.00248 -1,3.97241 -1,6l-1.14401,3.58517c0,0 -1.18586,3.55756 -4.74342,2.37171z" fill="#000000" stroke="none" stroke-width="0.5"/><path d="M167.82502,55.10001c0,3.019 -2.43049,3.6075 -3.37806,3.72222c-1.48465,1.25187 -2.91392,2.58457 -4.57987,3.57186c-2.10133,1.2453 -4.78201,1.00593 -7.19139,1.40749c-1.03975,0.17329 -1.95896,0.83465 -3,1c-2.83145,0.44973 -5.73374,0.04842 -8.60068,0.04842c-4.99618,0 -9.43453,-0.03125 -14.36952,-1.01825c-7.05339,-0.01699 -13.20685,-3.00643 -20.08867,-4.00985c-6.54572,-0.95441 -13.93134,0.0281 -20.54181,0.0281c-0.18379,0 -7.18295,0.01793 -7.60068,-0.04842c-1.04104,-0.16535 -1.96191,-0.81705 -3,-1c-3.11673,-0.54929 -6.7534,-0.17703 -10.10093,-0.01569c0.01574,6.67117 -0.02344,13.34347 -0.02344,20.01409c0,1.66667 0.28413,3.35773 0,5c-0.01896,0.10958 -0.06152,0.20766 -0.11976,0.29828c1.04137,0.00283 1.93757,0.84656 2.97044,1.00015c1.1209,0.16668 2.26612,-0.04101 3.39932,-0.04842c4.19145,-0.02743 7.37381,0.42129 11.45819,1.0281c2.308,0.34289 4.68371,-0.28155 7,0c4.62483,0.56215 9.16463,1.45232 13.85111,1.98468c3.09478,0.35155 6.58977,-0.01278 9.6907,-0.01278c7,0 14,0 21,0c10.66667,0 21.33333,0 32,0c5.24595,0 11.38258,-0.7804 16.60068,0.04842c3.62248,0.57538 7.17319,1.4323 10.8575,1.97967c3.73154,0.55439 7.87246,0.19564 11.78416,0.03656c-1.16035,-4.67552 -1.94176,-9.50803 -1.99234,-14.31466c0,-5.33333 0,-10.66667 0,-16c0,-2.91051 -0.59941,-6.89937 0.06766,-9.70915c0.41464,-1.74651 1.63448,-3.24255 2,-5c0.29128,-1.40049 -0.05439,-2.86045 -0.06766,-4.29085c-0.04669,-5.03076 -0.63776,-10.62614 0.04842,-15.60068c0.4595,-3.33122 1.50498,-6.67103 2,-10c0.4118,-2.76937 -0.04842,-5.5995 -0.04842,-8.39932c0,0 0,-3.75 3.75,-3.75c3.75,0 3.75,3.75 3.75,3.75c0,0.24248 0.01754,9.12248 -0.04842,9.60068c-0.4595,3.33122 -1.50498,6.67103 -2,10c-0.96894,6.51607 1.23421,13.6164 -0.01924,20.10847c-0.34029,1.7625 -1.54012,3.26485 -2,5c-0.60641,2.28805 0.06766,5.91591 0.06766,8.29085c0,5.33333 0,10.66667 0,16c-0.05569,3.90985 0.67314,8.06208 1.58715,11.95629c1.88789,0.97055 1.88789,3.34372 1.88789,3.34372c0,2.33334 0,5.66666 0,8c0,20.03309 -0.87192,39.7428 -0.98742,59.74029c0.51239,0.96486 0.51239,1.95969 0.51239,1.95969c0,6.35226 1.29351,12.2976 1.98175,18.63048c0.56099,5.16198 -0.79138,10.64976 -0.03017,15.76883c0.11171,0.75121 0.49572,1.43686 0.76351,2.15082c0.00656,-0.0001 0.00994,-0.0001 0.00994,-0.0001c4,0 9.00001,0 13.00001,0c1.63865,0 3.37865,0.73534 4.91331,0.1609c1.12558,-0.42132 1.83889,-1.68973 3,-2c3.40105,-0.90882 7.18757,0.35889 10.6285,-0.13281c2.35526,-0.33656 4.49729,-1.67982 6.8575,-1.97967c4.19922,-0.53348 9.35051,-0.04842 13.60068,-0.04842c3.8529,0.0313 6.94233,1.52566 10.60068,2.04842c6.17604,0.88253 13.13369,-0.04842 19.39932,-0.04842c11.25354,0 22.50708,0 33.76062,0c0.0762,-1.32124 0.28032,-2.65256 0.06279,-3.94935c-0.67843,-4.04436 -2.35578,-7.94411 -3,-12c-1.19788,-7.54164 1.07901,-15.60281 -0.02033,-23.1425c-0.39659,-2.71998 -1.65958,-5.27242 -2,-8c-0.49734,-3.98486 -0.0281,-8.43708 -0.0281,-12.45819c0,-5.59891 0.86758,-11.8905 0.04842,-17.39932c-0.15504,-1.04263 -0.85596,-1.95579 -1,-3c-0.40993,-2.97186 0.38266,-6.0245 0,-9c-0.13445,-1.04548 -0.83465,-1.95896 -1,-3c-0.62274,-3.92063 0.50397,-8.08121 0,-12c-0.13445,-1.04548 -0.87245,-1.95365 -1,-3c-0.74991,-6.15185 -0.15521,-12.79779 -0.06059,-19.06433c-0.61337,-0.66763 -0.98783,-1.55826 -0.98783,-2.53635c0,-2.07107 1.67893,-3.75 3.75,-3.75c1.21225,0 2.29016,0.57522 2.97566,1.4676c1.77434,1.00538 1.77434,3.2824 1.77434,3.2824c0,6.28267 -0.84876,13.17602 -0.04842,19.39932c0.13445,1.04548 0.87245,1.95365 1,3c0.46984,3.85434 -0.67262,8.18349 0,12c0.18295,1.03809 0.87245,1.95365 1,3c0.36301,2.97796 -0.44125,6.03263 0,9c0.15504,1.04263 0.85596,1.95579 1,3c0.82302,5.96662 0.04842,12.56203 0.04842,18.60068c0,3.71236 -0.48911,7.86088 -0.0281,11.54181c0.34159,2.72743 1.61733,5.27803 2,8c1.04513,7.43411 -1.3189,15.4893 -0.02033,22.8575c0.71397,4.05113 2.32483,7.93127 3,12c0.32741,1.97302 -0.34713,4.03036 0,6c0.18295,1.03809 0.87245,1.95365 1,3c0.02095,0.17186 0.03304,1.1634 0.03996,2.42792c-0.37412,-0.10888 -0.75646,-0.20688 -1.14798,-0.2928c-1.0686,1.51561 -3.11852,1.51561 -3.11852,1.51561c-12.66667,0 -25.33333,0 -38,0c-6.67993,0 -14.0015,0.89413 -20.60068,-0.04842c-3.35109,-0.47863 -5.90769,-1.99017 -9.39932,-1.95158c-3.83236,0 -8.58228,-0.5154 -12.39932,-0.04842c-2.45593,0.30046 -4.69311,1.67048 -7.1425,2.02033c-2.72492,0.3892 -6.80588,-0.93074 -9.3715,-0.13281c-1.14763,0.35692 -1.85041,1.64946 -3,2c-0.65671,0.20025 -5.97232,0.1609 -7.08669,0.1609c-4,0 -8,0 -12,0h-0.60009c-0.05712,1.34396 -0.12494,2.67575 -0.12494,3.94996c0,0.09511 0,0.19021 0,0.28532l0.28123,0.00567l-0.42708,1.40721c0.31152,1.2988 0.43223,2.6967 0.5532,4.09446c0.0835,-0.03409 0.13181,-0.0502 0.13181,-0.0502l0.00001,0.00002l0.52629,-0.16794c-1.47742,3.00525 -2.02702,6.35278 -1.06549,9.43541c0,0.99668 0,1.99336 0,2.99004c0,23 0,46 0,69c0,4.01937 0.52014,8.48105 -0.0281,12.45819c-0.18768,1.36149 -0.79803,2.64055 -1,4c-0.58696,3.95076 0.54121,8.17029 -0.02033,12.1425c-0.37395,2.64526 -1.64043,5.11766 -1.96983,7.76883c-0.25024,2.01407 0.2673,4.07812 -0.00985,6.08867c-0.18768,1.36149 -0.79803,2.64055 -1,4c-0.77768,5.23452 0.0281,11.26769 0.0281,16.54181v1c0,0 0,3.75 -3.75,3.75l0.00005,0.00004c-3.75,0 -3.75,-3.75 -3.75,-3.75v-1c0,-5.61264 -0.74103,-11.87865 0.0281,-17.45819c0.18768,-1.36149 0.79803,-2.64055 1,-4c0.28957,-1.94905 -0.25539,-3.95624 -0.00985,-5.91133c0.35215,-2.80392 1.62513,-5.4344 2.03017,-8.23117c0.55887,-3.85897 -0.55531,-7.97653 -0.02033,-11.8575c0.18768,-1.36149 0.79803,-2.64055 1,-4c0.35478,-2.38799 0.23224,-5.02019 0.10579,-7.58977c-0.13389,-0.54544 -0.13389,-0.95205 -0.13389,-0.95205c0,-23.66667 0,-48.33333 0,-72c0,-6 0,-12 0,-18c0,-2.98654 0.56391,-6.47441 0.04842,-9.39932c-0.18295,-1.03809 -0.85596,-1.95579 -1,-3c-0.73474,-5.32657 0.57637,-10.89914 -0.03017,-16.23117c-0.5734,-5.04068 -1.45265,-9.83064 -1.83268,-14.7793c-0.71054,-1.05311 -0.71054,-2.2902 -0.71054,-2.2902c0,-21.46374 1,-42.54768 1,-64c0,-0.51239 0,-1.02479 0,-1.53719c-4.64328,0.08835 -9.64214,0.58506 -14.18323,-0.04092c-3.77882,-0.5209 -7.4345,-1.36683 -11.1425,-2.02033c-4.66157,-0.82156 -10.70703,0.04842 -15.39932,0.04842c-7.08333,0 -14.16667,0 -21.25,0c0,22.41667 0,44.83333 0,67.25c0,16.10263 3.7359,32.22991 1.9719,48.45819c-0.40063,3.68566 -1.52585,7.32068 -2,11c-0.38951,3.02251 0.34844,6.11738 -0.02033,9.1425c-0.12755,1.04635 -0.81705,1.96191 -1,3c-0.57856,3.28281 0.04842,8.28309 0.04842,11.39932c0,3.03247 0.38519,6.46002 -0.0281,9.45819c-0.18768,1.36149 -0.82434,2.6369 -1,4c-0.76374,5.92647 0.0281,12.54263 0.0281,18.54181v2c0,0 0,3.75 -3.75,3.75l0.00005,0.00001c-3.75,0 -3.75,-3.75 -3.75,-3.75v-2c0,-6.33478 -0.73424,-13.18638 0.0281,-19.45819c0.16583,-1.36433 0.79803,-2.64055 1,-4c0.39778,-2.67742 -0.0281,-5.83277 -0.0281,-8.54181c0,-3.71941 -0.55355,-8.81076 0.04842,-12.60068c0.16535,-1.04104 0.86555,-1.95452 1,-3c0.3766,-2.92839 -0.37658,-5.92657 -0.02033,-8.8575c0.44783,-3.6843 1.58052,-7.31329 2,-11c0.32189,-2.82903 -0.0281,-5.69453 -0.0281,-8.54181c0,-4.35681 0.66653,-9.24454 0.0281,-13.54181c-1.2435,-8.3699 -2.0281,-16.92819 -2.0281,-25.45819c0,-22.41667 0,-44.83333 0,-67.25c-1.08333,0 -2.16667,0 -3.25,0c-10.25347,0 -21.13185,1.09445 -31.3093,-0.01278c-8.44036,-0.91824 -16.80703,-1.77599 -25.14889,-3.01532c-4.81331,-0.7151 -9.33888,0.20277 -14.1425,-1.02033c-1.66647,-0.42432 -3.97798,0.29391 -5.05097,-1.04993c-1.36988,-1.71568 -1.09835,-9.28474 -1.09835,-11.65165c0,-6 0,-12 0,-18c0,-1.40118 0.13399,-3.03189 0.20851,-4.66331l1.30299,-0.42072c-0.02381,-0.19317 -0.03645,-0.39824 -0.03645,-0.61596c0,-3.75 3.75,-3.75 3.75,-3.75c4.35247,0 9.29564,-0.63537 13.60068,0.04842c1.04104,0.16535 1.96191,0.81705 3,1c2.10079,0.37024 4.26615,-0.04842 6.39932,-0.04842c6.9332,0 14.58019,-0.93885 21.45819,0.0281c6.8149,0.95808 12.96262,4.00765 19.91133,3.99015c4.73538,0.94708 8.83952,0.98175 13.63048,0.98175c2.46649,0 4.97026,0.47652 7.39932,0.04842c1.03809,-0.18295 1.96025,-0.82671 3,-1c1.85196,-0.30866 3.18047,0.50713 4.80861,-0.59251c1.58695,-1.07182 2.96631,-2.42278 4.44946,-3.63417l3.34261,-0.82174c0,0 3.75,0 3.75,3.75zM64.23975,85.17208c0.01524,-0.02839 0.03645,-0.06704 0.06261,-0.11286c-0.01842,0.0289 -0.0354,0.05858 -0.0507,0.08917c-0.00435,0.00869 -0.00831,0.01657 -0.01191,0.02369z" fill="#000000" stroke="none" stroke-width="0.5"/><path d="M268.32502,156.10002c0,-0.6995 0.19152,-1.35426 0.52498,-1.91471c0,-2.8754 0,-5.72838 0,-8.38527c0.02692,-2.55741 0.67225,-5.07095 1.04842,-7.60068c0.47257,-3.17803 -0.04842,-7.19378 -0.04842,-10.39932c0,-9.33333 0,-18.66667 0,-28c0,-6.2441 0.94257,-13.38657 0.0281,-19.54181c-0.43653,-2.93826 -0.9921,-5.88702 -0.97967,-8.8575c-1.29125,-3.87376 -0.53886,-7.20704 -1.02033,-11.1425c-0.28891,-2.36157 -1.59671,-4.50935 -1.97967,-6.8575c-1.27204,-7.79948 1.30294,-16.23275 0,-24c-0.34877,-2.07914 -1.63916,-3.92293 -2,-6c-0.79138,-4.55533 -0.75992,-9.13379 -1.93646,-13.69117c0,0 -0.90951,-3.63803 2.72853,-4.54754c3.63803,-0.90951 4.54754,2.72853 4.54754,2.72853c1.17135,4.81059 1.30546,9.51329 2.06354,14.30883c0.32918,2.08233 1.65488,3.92026 2,6c1.29287,7.79108 -1.33224,16.24333 0,24c0.41883,2.43854 1.70849,4.68798 2.02033,7.1425c0.51201,4.03016 -0.31945,6.96014 0.97967,10.8575c0.01212,3.06639 0.60159,6.1048 1.02033,9.1425c0.59473,4.31438 0.0281,9.09108 0.0281,13.45819c0,10.33333 0,20.66667 0,31c0,5.01151 0.63689,10.63244 -0.04842,15.60068c-0.29468,2.13633 -0.98229,4.24298 -0.95158,6.39932c0,3.62038 0,7.24076 0,10.86114c-0.18625,-0.05777 -0.36887,-0.1096 -0.54662,-0.15609c-0.20199,1.88055 -1.79417,3.3449 -3.72837,3.3449c-2.07107,0 -3.75,-1.67893 -3.75,-3.75z" fill="#000000" stroke="none" stroke-width="0.5"/><path d="M6.2459,255.47709c-1.67705,-3.3541 1.67705,-5.03115 1.67705,-5.03115l2.4912,-1.20346c0.66159,-0.22053 6.19484,-2.07924 6.58517,-2.14402c3.30655,-0.5487 6.84401,0.46972 10.1425,-0.02033c5.38226,-0.79963 10.65002,-2.33709 16.08867,-3.00985c4.62701,-0.57236 9.71511,-0.01825 14.36952,-0.01825c3.03821,0 6.61096,-0.43918 9.60068,0.04842c1.24205,0.20257 2.44837,0.56238 3.64932,0.94826c0,-10.01887 0,-22.80316 0,-32.24668c0,-7.19222 -1,-13.82937 -1,-21c0,-5.95609 0.8627,-12.5368 0.04842,-18.39932c-0.29003,-2.08814 -1.65488,-3.92026 -2,-6c-0.92324,-5.56359 -0.04842,-11.94342 -0.04842,-17.60068c0,0 0,-3.75 3.75,-3.75c3.75,0 3.75,3.75 3.75,3.75c0,5.23293 -0.90822,11.27377 -0.04842,16.39932c0.34877,2.07914 1.69611,3.91383 2,6c1.2847,8.81921 -1.30747,18.20736 0,27c0.15504,1.04263 0.83465,1.95896 1,3c0.52016,3.27482 0.04842,7.29735 0.04842,10.60068c0,10.33333 0,20.66667 0,31v4c0,0 0,1.6273 -1.07198,2.73794c-0.0122,0.0565 -0.02552,0.11369 -0.03999,0.17156c-0.90951,3.63803 -4.54754,2.72853 -4.54754,2.72853c-2.25223,-0.56461 -4.40277,-1.54341 -6.69117,-1.93646c-2.57291,-0.44191 -5.78452,0.04842 -8.39932,0.04842c-4.40189,0 -9.25735,-0.57189 -13.63048,-0.01825c-5.37386,0.68033 -10.57853,2.25504 -15.91133,2.99015c-3.21116,0.44265 -6.68162,-0.55307 -9.8575,-0.02033c-1.88173,0.31566 -3.60472,1.25261 -5.41483,1.85598l-1.5088,0.79654c0,0 -3.3541,1.67705 -5.03115,-1.67705z" fill="#000000" stroke="none" stroke-width="0.5"/><path d="M66.60001,314.05003c3.75,0 3.75,3.75 3.75,3.75v1c0,9.0246 -1.36521,19.36243 0.88803,28.09049c0,0 0.90951,3.63803 -2.72853,4.54754c-3.63803,0.90951 -4.54754,-2.72853 -4.54754,-2.72853c-2.30633,-9.47184 -1.11197,-20.15681 -1.11197,-29.90951v-1c0,0 0,-3.75 3.75,-3.75z" fill="#000000" stroke="none" stroke-width="0.5"/><path d="" fill="#ffffff" stroke="none" stroke-width="0"/><path d="" fill="#ffffff" stroke="none" stroke-width="0"/><path d="M510.07502,123.6c0,-1.38071 0.22386,-2.5 0.5,-2.5c0.27614,0 0.5,1.11929 0.5,2.5c0,1.38071 -0.22386,2.5 -0.5,2.5c-0.27614,0 -0.5,-1.11929 -0.5,-2.5z" fill="#9fff84" stroke="none" stroke-width="0"/><path d="" fill="#9fff84" stroke="none" stroke-width="0"/><path d="" fill="#ffffff" stroke="none" stroke-width="0"/><path d="" fill="#5eff33" stroke="none" stroke-width="0"/><path d="M419.53317,195.11542c0.18103,0.00277 0.3617,-0.00146 0.54185,-0.01542c1.27554,-0.09881 2.38813,-0.16091 3.38262,-0.2392c-2.03215,1.16063 -4.29414,1.91243 -6.69274,2.15438c1.21804,-0.57414 2.11082,-1.20901 2.76827,-1.89977z" fill="#ffffff" stroke="none" stroke-width="0"/><path d="" fill="#35ff00" stroke="none" stroke-width="0"/></g></g></svg>